<svg width="99" height="90" viewBox="0 0 99 90" fill="none" xmlns="http://www.w3.org/2000/svg">
<path d="M79.8662 55.5474C84.419 54.8919 88.5368 53.5563 92.3727 51.1692C92.1128 51.1364 91.8556 51.0873 91.5956 51.0736C90.5614 51.019 89.5217 51.0162 88.493 50.9152C87.6366 50.8305 87.1578 50.2488 87.1988 49.413C87.2399 48.5772 87.7734 48.0146 88.6298 48.0392C91.6039 48.1211 94.5807 48.2167 97.5493 48.4024C98.7477 48.4762 99.2484 49.443 98.7778 50.5929C97.7052 53.2149 96.6053 55.826 95.4918 58.4316C95.1115 59.3192 94.3153 59.6688 93.5492 59.3711C92.7311 59.0516 92.3946 58.2267 92.753 57.3036C93.1579 56.2602 93.6012 55.2306 93.9514 54.0944C89.5326 56.3558 84.9224 57.8935 79.8662 58.5381C79.8662 58.9696 79.8662 59.3875 79.8662 59.8081C79.8662 69.2227 79.8634 78.6374 79.8717 88.052C79.8717 88.8795 79.7458 89.7071 78.8456 89.8655C78.3203 89.9584 77.5214 89.7453 77.163 89.3684C71.7647 83.6656 66.413 77.919 61.0832 72.1534C60.7576 71.801 60.5661 71.1974 60.5551 70.7085C60.5059 67.9718 60.5168 65.2324 60.5387 62.4957C60.5469 61.3322 61.0777 60.734 61.997 60.7149C62.9437 60.6958 63.4909 61.2748 63.5046 62.4301C63.5292 64.8336 63.4909 67.2371 63.5401 69.6406C63.5484 70.0913 63.7371 70.643 64.0381 70.968C68.0492 75.3134 72.0931 79.6288 76.1342 83.9496C76.3066 84.1353 76.5118 84.2883 76.8264 84.5669C76.8264 58.1393 76.8264 31.8729 76.8264 5.44812C76.5309 5.70759 76.3257 5.85508 76.1561 6.03807C72.1642 10.3097 68.1586 14.5705 64.2077 18.8831C63.811 19.3174 63.5511 20.0466 63.5484 20.6421C63.5073 29.2564 63.521 37.868 63.5183 46.4824C63.5183 46.75 63.521 47.0177 63.5155 47.2826C63.4909 48.5499 62.9492 49.2573 62.0134 49.2409C61.0859 49.2245 60.5387 48.5144 60.536 47.2417C60.5278 39.2965 60.7165 31.3431 60.4484 23.4061C60.328 19.8227 61.3048 17.2116 63.8822 14.6989C68.3748 10.3179 72.5171 5.57649 76.7963 0.977075C77.3928 0.337963 77.9892 -0.265644 78.9441 0.130387C79.847 0.501836 79.8717 1.31847 79.8717 2.15697C79.8634 19.484 79.8662 36.811 79.8662 54.1381C79.8662 54.5614 79.8662 54.9875 79.8662 55.5474ZM29.5748 84.1408C25.468 79.7462 21.353 75.3599 17.2817 70.9352C16.9698 70.5966 16.8248 69.9848 16.8248 69.4986C16.7974 61.8866 16.8084 54.2774 16.7974 46.6654C16.7974 46.2038 16.8494 45.622 16.6032 45.3134C16.2721 44.9037 15.6729 44.4831 15.1914 44.4858C14.7618 44.4886 14.2721 45.0075 13.9355 45.4035C13.7604 45.6084 13.8315 46.0454 13.8315 46.3759C13.8261 54.4221 13.8343 62.4656 13.8179 70.5119C13.8151 71.2957 14.0477 71.9048 14.5922 72.4811C17.2571 75.2943 19.8892 78.1375 22.5349 80.9726C25.1342 83.7557 27.7389 86.5361 30.3272 89.3302C30.8635 89.9092 31.4818 90.1577 32.2123 89.871C32.921 89.5924 33.1536 88.9779 33.1098 88.2404C33.0934 87.94 33.107 87.6395 33.107 87.3391C33.107 73.0847 33.107 58.8303 33.107 44.5787C33.107 44.1608 33.107 43.7457 33.107 43.2049C33.9716 43.4671 34.6748 43.661 35.3615 43.8959C39.3042 45.2451 42.9459 47.1952 46.4371 49.4403C47.4494 50.0904 48.3195 49.9948 48.8175 49.2327C49.3264 48.4543 49.061 47.5967 48.0869 46.9685C43.7503 44.1581 39.1893 41.8119 34.1796 40.4436C33.2821 40.1978 33.0797 39.799 33.0824 38.925C33.1125 26.7409 33.1043 14.5568 33.1016 2.37274C33.1016 2.03953 33.1973 1.65988 33.0687 1.38129C32.8608 0.927907 32.5899 0.321572 32.1959 0.179547C31.7582 0.0184035 31.1426 0.25329 30.6309 0.408971C30.4066 0.477252 30.2451 0.76403 30.0618 0.96068C24.9071 6.48053 19.7633 12.0058 14.5922 17.5093C14.0203 18.1184 13.7987 18.7575 13.8042 19.5741C13.8261 23.9469 13.8151 28.3196 13.8151 32.6923C13.8151 32.96 13.8179 33.2276 13.848 33.4926C13.9355 34.2846 14.4827 34.7926 15.1749 34.7162C15.6975 34.6615 16.2448 34.1836 16.6251 33.7548C16.8412 33.5117 16.781 32.9927 16.781 32.5967C16.7892 28.5572 16.7646 24.5177 16.8139 20.4809C16.8193 19.9483 17.0628 19.2983 17.4212 18.9104C21.3776 14.606 25.375 10.3398 29.3669 6.06811C29.5529 5.86873 29.7773 5.70486 30.0864 5.43174C30.0864 31.8729 30.0864 58.1312 30.0864 84.5915C29.821 84.3511 29.6842 84.2583 29.5748 84.1408ZM53.3812 84.5068C53.1842 84.3566 53.0939 84.3047 53.0282 84.2337C48.8776 79.7899 44.7216 75.3517 40.5984 70.8833C40.322 70.5829 40.166 70.0612 40.1633 69.6406C40.1277 66.4696 40.1442 63.2987 40.1442 60.1277C40.1442 56.9239 40.1524 53.7175 40.1387 50.5137C40.1332 49.3666 39.3699 48.6892 38.3548 48.9187C37.3917 49.1371 37.1756 49.8582 37.1783 50.7458C37.1892 57.2544 37.2002 63.7657 37.1673 70.2743C37.1619 71.2111 37.4327 71.9103 38.073 72.5931C43.1538 77.9982 48.2073 83.428 53.2608 88.8549C53.8846 89.5241 54.4729 90.2888 55.5399 89.8901C56.648 89.4777 56.4757 88.4726 56.4757 87.5849C56.4811 77.1352 56.4784 66.6881 56.4784 56.2384C56.4784 55.8205 56.4784 55.4054 56.4784 54.8427C57.0393 55.0585 57.4059 55.1951 57.7698 55.3425C61.6523 56.9294 65.6524 58.0629 69.8303 58.5408C71.0315 58.6774 71.7921 58.0137 71.6717 56.9267C71.5595 55.9052 70.7907 55.6648 69.9589 55.5665C65.8795 55.0803 61.9998 53.9004 58.224 52.319C56.4839 51.5898 56.4784 51.6035 56.4784 49.7544C56.4784 33.8968 56.4784 18.0419 56.4811 2.18428C56.4811 1.3294 56.503 0.44721 55.5098 0.0948791C54.5987 -0.230139 54.016 0.335224 53.4441 0.952486C48.2785 6.50511 43.0882 12.0359 37.9499 17.6158C37.5258 18.0774 37.2357 18.834 37.2166 19.4649C37.1372 22.1661 37.1838 24.8727 37.1838 27.5767C37.1838 30.4144 37.1701 33.2522 37.192 36.09C37.2029 37.3409 38.2289 38.0729 39.2741 37.6058C40.0265 37.2699 40.1551 36.6116 40.1524 35.8551C40.1387 30.7477 40.125 25.6402 40.1743 20.5328C40.1797 19.9729 40.4561 19.2983 40.8337 18.8831C43.6682 15.7695 46.5575 12.7105 49.4331 9.63239C50.7053 8.27223 51.9776 6.9148 53.3867 5.40988C53.3812 31.8921 53.3812 58.1503 53.3812 84.5068ZM8.79448 38.9714C6.21165 39.4221 3.69173 40.2551 1.16909 41.0008C0.173167 41.293 -0.190726 42.1151 0.0938236 42.9509C0.367429 43.7539 1.18824 44.0843 2.17869 43.7812C2.37022 43.7238 2.55353 43.6391 2.74232 43.5736C6.51534 42.2571 10.3978 41.3886 14.387 41.2657C17.7824 41.1592 21.1888 41.3586 24.5897 41.4405C25.7033 41.4678 26.401 41.009 26.4803 40.1158C26.5597 39.22 25.9577 38.5836 24.8578 38.4907C22.6964 38.305 20.5321 38.1521 17.7742 37.9418C15.1503 38.2258 11.9409 38.4225 8.79448 38.9714Z" fill="#49A39E"/>
</svg>
