<svg width="92" height="92" viewBox="0 0 92 92" fill="none" xmlns="http://www.w3.org/2000/svg">
<path d="M11.0609 23.7894H1.94321C1.42158 23.7894 1 23.3678 1 22.8486V2.49341C1 1.6693 1.6693 1 2.49341 1H33.3001C33.8217 1 34.2433 1.42158 34.2433 1.94321V11.0609C34.2433 11.5825 33.8217 12.0017 33.3001 12.0017C32.7784 12.0017 32.3568 11.5801 32.3568 11.0609V2.88403H2.88403V21.9054H11.0609C11.5801 21.9054 12.0017 22.3269 12.0017 22.8462C12.0017 23.3654 11.5801 23.787 11.0609 23.787V23.7894Z" fill="#49A39E"/>
<path d="M64.6569 12.0017C64.1377 12.0017 63.7161 11.5801 63.7161 11.0609V2.88403H34.2409V11.0609C34.2409 11.5825 33.8193 12.0017 33.2977 12.0017C32.7761 12.0017 32.3545 11.5801 32.3545 11.0609V1.94321C32.3545 1.42158 32.7761 1 33.2977 1H64.1043C64.9284 1 65.5977 1.6693 65.5977 2.49341V11.0609C65.5977 11.5825 65.1761 12.0017 64.6545 12.0017H64.6569Z" fill="#49A39E"/>
<path d="M11.0609 44.6947H1.94321C1.42158 44.6947 1 44.2732 1 43.7539V22.8462C1 22.3269 1.42158 21.9054 1.94321 21.9054H11.0609C11.5801 21.9054 12.0017 22.3269 12.0017 22.8462C12.0017 23.3654 11.5801 23.787 11.0609 23.787H2.88403V42.8107H11.0609C11.5801 42.8107 12.0017 43.2323 12.0017 43.7539C12.0017 44.2755 11.5801 44.6947 11.0609 44.6947Z" fill="#49A39E"/>
<path d="M11.0609 65.6001H2.49341C1.6693 65.6001 1 64.9308 1 64.1067V43.7539C1 43.2323 1.42158 42.8107 1.94321 42.8107H11.0609C11.5801 42.8107 12.0017 43.2323 12.0017 43.7539C12.0017 44.2755 11.5801 44.6947 11.0609 44.6947H2.88403V63.7161H11.0609C11.5801 63.7161 12.0017 64.1377 12.0017 64.6569C12.0017 65.1761 11.5801 65.5977 11.0609 65.5977V65.6001Z" fill="#49A39E"/>
<path d="M11.0609 21.9054H2.88403V2.88403H32.3568V11.0609C32.3568 11.5801 32.7784 12.0017 33.3001 12.0017C33.8217 12.0017 34.2433 11.5825 34.2433 11.0609V1.94321C34.2433 1.42158 33.8217 1 33.3001 1H2.49341C1.6693 1 1 1.6693 1 2.49341V22.8486C1 23.3678 1.42158 23.7894 1.94321 23.7894H11.0609V23.787M11.0609 21.9054C11.5801 21.9054 12.0017 22.3269 12.0017 22.8462C12.0017 23.3654 11.5801 23.787 11.0609 23.787M11.0609 21.9054H1.94321C1.42158 21.9054 1 22.3269 1 22.8462V43.7539M11.0609 23.787H2.88403V42.8107H11.0609M11.0609 44.6947H1.94321C1.42158 44.6947 1 44.2732 1 43.7539M11.0609 44.6947C11.5801 44.6947 12.0017 44.2755 12.0017 43.7539C12.0017 43.2323 11.5801 42.8107 11.0609 42.8107M11.0609 44.6947H2.88403V63.7161H11.0609C11.5801 63.7161 12.0017 64.1377 12.0017 64.6569C12.0017 65.1761 11.5801 65.5977 11.0609 65.5977V65.6001H2.49341C1.6693 65.6001 1 64.9308 1 64.1067V43.7539M1 43.7539C1 43.2323 1.42158 42.8107 1.94321 42.8107H11.0609M64.6569 12.0017C64.1377 12.0017 63.7161 11.5801 63.7161 11.0609V2.88403H34.2409V11.0609C34.2409 11.5825 33.8193 12.0017 33.2977 12.0017C32.7761 12.0017 32.3545 11.5801 32.3545 11.0609V1.94321C32.3545 1.42158 32.7761 1 33.2977 1H64.1043C64.9284 1 65.5977 1.6693 65.5977 2.49341V11.0609C65.5977 11.5825 65.1761 12.0017 64.6545 12.0017H64.6569Z" stroke="#49A39E"/>
<path d="M23.7584 78.2979H15.191C14.3669 78.2979 13.6976 77.6286 13.6976 76.8045V15.1912C13.6976 14.3694 14.3669 13.6978 15.191 13.6978H76.8066C77.6284 13.6978 78.3001 14.367 78.3001 15.1912V23.7586C78.3001 24.2779 77.8785 24.6994 77.3569 24.6994C76.8352 24.6994 76.4136 24.2779 76.4136 23.7586V15.5818H15.5816V76.4138H23.7584C24.2777 76.4138 24.7016 76.8354 24.7016 77.3547C24.7016 77.8739 24.2801 78.2955 23.7584 78.2955V78.2979Z" fill="#49A39E"/>
<path d="M36.8752 24.6994C36.4893 24.6994 36.1273 24.4613 35.9892 24.0754C35.8129 23.5847 36.0678 23.0464 36.5584 22.8726L40.7385 21.3696L41.9842 17.9017C42.1605 17.411 42.6988 17.1562 43.1894 17.3324C43.6801 17.5087 43.9326 18.047 43.7587 18.5376L42.3629 22.4224C42.2677 22.6868 42.0605 22.8964 41.7961 22.9917L37.1991 24.6423C37.0943 24.6804 36.9871 24.6971 36.88 24.6971L36.8752 24.6994Z" fill="#49A39E"/>
<path d="M18.2183 43.816C17.8324 43.816 17.4704 43.5779 17.3322 43.192C17.156 42.7013 17.4108 42.163 17.9015 41.9868L21.3647 40.7411L22.8724 36.5419C23.0487 36.0513 23.5869 35.7964 24.0776 35.9727C24.5683 36.1489 24.8207 36.6872 24.6469 37.1779L22.9891 41.7939C22.8938 42.0582 22.6866 42.2678 22.4198 42.3631L18.5398 43.7565C18.435 43.7922 18.3255 43.8113 18.2207 43.8113L18.2183 43.816Z" fill="#49A39E"/>
<path d="M55.1153 24.6994C54.7294 24.6994 54.3674 24.4613 54.2292 24.0754C54.053 23.5871 54.3078 23.0464 54.7961 22.8726L55.0605 22.7749L56.6182 18.4424C56.7135 18.178 56.9207 17.9684 57.1851 17.8731L58.6952 17.33C59.1835 17.1538 59.7241 17.4086 59.9004 17.8993C60.0766 18.3876 59.8218 18.9283 59.3335 19.1021L58.2403 19.4927L56.6849 23.8277C56.5896 24.0921 56.3824 24.2993 56.118 24.3946L55.4344 24.6399C55.3296 24.678 55.2201 24.6947 55.1153 24.6947V24.6994Z" fill="#49A39E"/>
<path d="M18.2183 59.9458C18.1135 59.9458 18.0063 59.9268 17.8991 59.891C17.4085 59.7148 17.156 59.1765 17.3299 58.6858L17.8658 57.1924C17.9611 56.928 18.1683 56.7208 18.435 56.6232L22.7676 55.0654L22.8676 54.7868C23.0439 54.2961 23.5822 54.0412 24.0728 54.2175C24.5611 54.3938 24.816 54.9321 24.6397 55.4227L24.3896 56.1206C24.2944 56.385 24.0871 56.5922 23.8204 56.6898L19.4878 58.2452L19.0996 59.3242C18.9614 59.7076 18.5994 59.9482 18.2135 59.9482L18.2183 59.9458Z" fill="#49A39E"/>
<path d="M70.5377 24.6994C70.4329 24.6994 70.3233 24.6828 70.2185 24.6447C69.7302 24.4684 69.4754 23.9301 69.6516 23.4394L70.9426 19.85C71.0378 19.5856 71.2451 19.376 71.5118 19.2808L73.4602 18.5805C73.9485 18.4066 74.4891 18.6591 74.6654 19.1498C74.8416 19.6404 74.5868 20.1787 74.0961 20.355L72.567 20.9052L71.4261 24.0778C71.2879 24.4613 70.9259 24.7018 70.54 24.7018L70.5377 24.6994Z" fill="#49A39E"/>
<path d="M19.464 74.718C19.3592 74.718 19.2496 74.7013 19.1448 74.6632C18.6542 74.4869 18.4017 73.9486 18.5756 73.4603L19.2734 71.5168C19.3687 71.2524 19.5759 71.0452 19.8403 70.9475L24.5921 69.2397C25.0827 69.0635 25.621 69.3183 25.7973 69.809C25.9735 70.2997 25.7187 70.838 25.228 71.0142L20.8955 72.5695L20.3477 74.0963C20.2095 74.4798 19.8475 74.7203 19.4616 74.7203L19.464 74.718Z" fill="#49A39E"/>
<path d="M18.2183 28.9891C17.8324 28.9891 17.4704 28.7509 17.3322 28.3651C17.156 27.8768 17.4108 27.3361 17.9015 27.1622L19.9546 26.4239L21.5124 22.0913C21.6076 21.8269 21.8149 21.6173 22.0816 21.5244L26.4142 19.9667L27.1549 17.9041C27.3312 17.4134 27.8695 17.1585 28.3601 17.3348C28.8508 17.5111 29.1033 18.0494 28.9294 18.54L28.0386 21.0195C27.9433 21.2839 27.7361 21.4935 27.4693 21.5864L23.1344 23.1441L21.5791 27.479C21.4838 27.7434 21.2766 27.9506 21.0098 28.0459L18.5375 28.932C18.4327 28.9701 18.3231 28.9867 18.2183 28.9867V28.9891Z" fill="#49A39E"/>
<path d="M23.7584 78.2979H15.191C14.3669 78.2979 13.6976 77.6286 13.6976 76.8045V15.1912C13.6976 14.3694 14.3669 13.6978 15.191 13.6978H76.8066C77.6284 13.6978 78.3001 14.367 78.3001 15.1912V23.7586C78.3001 24.2779 77.8785 24.6994 77.3569 24.6994C76.8352 24.6994 76.4136 24.2779 76.4136 23.7586V15.5818H15.5816V76.4138H23.7584C24.2777 76.4138 24.7016 76.8354 24.7016 77.3547C24.7016 77.8739 24.2801 78.2955 23.7584 78.2955V78.2979Z" stroke="#49A39E"/>
<path d="M36.8752 24.6994C36.4893 24.6994 36.1273 24.4613 35.9892 24.0754C35.8129 23.5847 36.0678 23.0464 36.5584 22.8726L40.7385 21.3696L41.9842 17.9017C42.1605 17.411 42.6988 17.1562 43.1894 17.3324C43.6801 17.5087 43.9326 18.047 43.7587 18.5376L42.3629 22.4224C42.2677 22.6868 42.0605 22.8964 41.7961 22.9917L37.1991 24.6423C37.0943 24.6804 36.9871 24.6971 36.88 24.6971L36.8752 24.6994Z" stroke="#49A39E"/>
<path d="M18.2183 43.816C17.8324 43.816 17.4704 43.5779 17.3322 43.192C17.156 42.7013 17.4108 42.163 17.9015 41.9868L21.3647 40.7411L22.8724 36.5419C23.0487 36.0513 23.5869 35.7964 24.0776 35.9727C24.5683 36.1489 24.8207 36.6872 24.6469 37.1779L22.9891 41.7939C22.8938 42.0582 22.6866 42.2678 22.4198 42.3631L18.5398 43.7565C18.435 43.7922 18.3255 43.8113 18.2207 43.8113L18.2183 43.816Z" stroke="#49A39E"/>
<path d="M55.1153 24.6994C54.7294 24.6994 54.3674 24.4613 54.2292 24.0754C54.053 23.5871 54.3078 23.0464 54.7961 22.8726L55.0605 22.7749L56.6182 18.4424C56.7135 18.178 56.9207 17.9684 57.1851 17.8731L58.6952 17.33C59.1835 17.1538 59.7241 17.4086 59.9004 17.8993C60.0766 18.3876 59.8218 18.9283 59.3335 19.1021L58.2403 19.4927L56.6849 23.8277C56.5896 24.0921 56.3824 24.2993 56.118 24.3946L55.4344 24.6399C55.3296 24.678 55.2201 24.6947 55.1153 24.6947V24.6994Z" stroke="#49A39E"/>
<path d="M18.2183 59.9458C18.1135 59.9458 18.0063 59.9268 17.8991 59.891C17.4085 59.7148 17.156 59.1765 17.3299 58.6858L17.8658 57.1924C17.9611 56.928 18.1683 56.7208 18.435 56.6232L22.7676 55.0654L22.8676 54.7868C23.0439 54.2961 23.5822 54.0412 24.0728 54.2175C24.5611 54.3938 24.816 54.9321 24.6397 55.4227L24.3896 56.1206C24.2944 56.385 24.0871 56.5922 23.8204 56.6898L19.4878 58.2452L19.0996 59.3242C18.9614 59.7076 18.5994 59.9482 18.2135 59.9482L18.2183 59.9458Z" stroke="#49A39E"/>
<path d="M70.5377 24.6994C70.4329 24.6994 70.3233 24.6828 70.2185 24.6447C69.7302 24.4684 69.4754 23.9301 69.6516 23.4394L70.9426 19.85C71.0378 19.5856 71.2451 19.376 71.5118 19.2808L73.4602 18.5805C73.9485 18.4066 74.4891 18.6591 74.6654 19.1498C74.8416 19.6404 74.5868 20.1787 74.0961 20.355L72.567 20.9052L71.4261 24.0778C71.2879 24.4613 70.9259 24.7018 70.54 24.7018L70.5377 24.6994Z" stroke="#49A39E"/>
<path d="M19.464 74.718C19.3592 74.718 19.2496 74.7013 19.1448 74.6632C18.6542 74.4869 18.4017 73.9486 18.5756 73.4603L19.2734 71.5168C19.3687 71.2524 19.5759 71.0452 19.8403 70.9475L24.5921 69.2397C25.0827 69.0635 25.621 69.3183 25.7973 69.809C25.9735 70.2997 25.7187 70.838 25.228 71.0142L20.8955 72.5695L20.3477 74.0963C20.2095 74.4798 19.8475 74.7203 19.4616 74.7203L19.464 74.718Z" stroke="#49A39E"/>
<path d="M18.2183 28.9891C17.8324 28.9891 17.4704 28.7509 17.3322 28.3651C17.156 27.8768 17.4108 27.3361 17.9015 27.1622L19.9546 26.4239L21.5124 22.0913C21.6076 21.8269 21.8149 21.6173 22.0816 21.5244L26.4142 19.9667L27.1549 17.9041C27.3312 17.4134 27.8695 17.1585 28.3601 17.3348C28.8508 17.5111 29.1033 18.0494 28.9294 18.54L28.0386 21.0195C27.9433 21.2839 27.7361 21.4935 27.4693 21.5864L23.1344 23.1441L21.5791 27.479C21.4838 27.7434 21.2766 27.9506 21.0098 28.0459L18.5375 28.932C18.4327 28.9701 18.3231 28.9867 18.2183 28.9867V28.9891Z" stroke="#49A39E"/>
<path d="M48.2437 37.2394H27.3383C26.8191 37.2394 26.3951 36.8179 26.3951 36.2962V27.886C26.3951 27.0643 27.0644 26.3926 27.8886 26.3926H48.2437C48.7629 26.3926 49.1869 26.8142 49.1869 27.3358V36.2962C49.1869 36.8179 48.7653 37.2394 48.2437 37.2394ZM28.2792 35.353H47.3005V28.279H28.2792V35.353Z" fill="#49A39E"/>
<path d="M69.1491 37.2394H48.2437C47.7221 37.2394 47.3005 36.8179 47.3005 36.2962V27.3358C47.3005 26.8142 47.7221 26.3926 48.2437 26.3926H69.1491C69.6707 26.3926 70.0923 26.8142 70.0923 27.3358V36.2962C70.0923 36.8179 69.6707 37.2394 69.1491 37.2394ZM49.1869 35.353H68.2082V28.279H49.1869V35.353Z" fill="#49A39E"/>
<path d="M90.0544 37.2394H69.1491C68.6298 37.2394 68.2082 36.8179 68.2082 36.2962V27.3358C68.2082 26.8142 68.6298 26.3926 69.1491 26.3926H89.5042C90.3283 26.3926 90.9976 27.0619 90.9976 27.886V36.2962C90.9976 36.8179 90.576 37.2394 90.0544 37.2394ZM70.0899 35.353H89.1112V28.279H70.0899V35.353Z" fill="#49A39E"/>
<path d="M48.2437 55.158H27.3383C26.8191 55.158 26.3951 54.7364 26.3951 54.2148V45.2543C26.3951 44.7327 26.8167 44.3111 27.3383 44.3111H48.2437C48.7629 44.3111 49.1869 44.7327 49.1869 45.2543V54.2148C49.1869 54.7364 48.7653 55.158 48.2437 55.158ZM28.2792 53.2716H47.3005V46.1975H28.2792V53.2716Z" fill="#49A39E"/>
<path d="M69.1491 55.158H48.2437C47.7221 55.158 47.3005 54.7364 47.3005 54.2148V45.2543C47.3005 44.7327 47.7221 44.3111 48.2437 44.3111H69.1491C69.6707 44.3111 70.0923 44.7327 70.0923 45.2543V54.2148C70.0923 54.7364 69.6707 55.158 69.1491 55.158ZM49.1869 53.2716H68.2082V46.1975H49.1869V53.2716Z" fill="#49A39E"/>
<path d="M90.0544 55.158H69.1491C68.6298 55.158 68.2082 54.7364 68.2082 54.2148V45.2543C68.2082 44.7327 68.6298 44.3111 69.1491 44.3111H90.0544C90.576 44.3111 90.9976 44.7327 90.9976 45.2543V54.2148C90.9976 54.7364 90.576 55.158 90.0544 55.158ZM70.0899 53.2716H89.1112V46.1975H70.0899V53.2716Z" fill="#49A39E"/>
<path d="M37.7898 46.1999H27.336C26.8167 46.1999 26.3928 45.7783 26.3928 45.2567V36.2962C26.3928 35.7746 26.8143 35.353 27.336 35.353H37.7898C38.3091 35.353 38.733 35.7746 38.733 36.2962V45.2567C38.733 45.7783 38.3115 46.1999 37.7898 46.1999ZM28.2792 44.3135H36.8466V37.2394H28.2792V44.3135Z" fill="#49A39E"/>
<path d="M58.6952 46.1999H37.7898C37.2682 46.1999 36.8466 45.7783 36.8466 45.2567V36.2962C36.8466 35.7746 37.2682 35.353 37.7898 35.353H58.6952C59.2144 35.353 59.636 35.7746 59.636 36.2962V45.2567C59.636 45.7783 59.2144 46.1999 58.6952 46.1999ZM38.7307 44.3135H57.752V37.2394H38.7307V44.3135Z" fill="#49A39E"/>
<path d="M79.6006 46.1999H58.6952C58.1736 46.1999 57.752 45.7783 57.752 45.2567V36.2962C57.752 35.7746 58.1736 35.353 58.6952 35.353H79.6006C80.1222 35.353 80.5438 35.7746 80.5438 36.2962V45.2567C80.5438 45.7783 80.1222 46.1999 79.6006 46.1999ZM59.636 44.3135H78.6573V37.2394H59.636V44.3135Z" fill="#49A39E"/>
<path d="M90.0544 46.1999H79.6006C79.0813 46.1999 78.6573 45.7783 78.6573 45.2567V36.2962C78.6573 35.7746 79.0789 35.353 79.6006 35.353H90.0544C90.576 35.353 90.9976 35.7746 90.9976 36.2962V45.2567C90.9976 45.7783 90.576 46.1999 90.0544 46.1999ZM80.5438 44.3135H89.1112V37.2394H80.5438V44.3135Z" fill="#49A39E"/>
<path d="M48.2437 73.0765H27.3383C26.8191 73.0765 26.3951 72.655 26.3951 72.1333V63.1729C26.3951 62.6513 26.8167 62.2297 27.3383 62.2297H48.2437C48.7629 62.2297 49.1869 62.6513 49.1869 63.1729V72.1333C49.1869 72.655 48.7653 73.0765 48.2437 73.0765ZM28.2792 71.1901H47.3005V64.1161H28.2792V71.1901Z" fill="#49A39E"/>
<path d="M69.1491 73.0765H48.2437C47.7221 73.0765 47.3005 72.655 47.3005 72.1333V63.1729C47.3005 62.6513 47.7221 62.2297 48.2437 62.2297H69.1491C69.6707 62.2297 70.0923 62.6513 70.0923 63.1729V72.1333C70.0923 72.655 69.6707 73.0765 69.1491 73.0765ZM49.1869 71.1901H68.2082V64.1161H49.1869V71.1901Z" fill="#49A39E"/>
<path d="M90.0544 73.0765H69.1491C68.6298 73.0765 68.2082 72.655 68.2082 72.1333V63.1729C68.2082 62.6513 68.6298 62.2297 69.1491 62.2297H90.0544C90.576 62.2297 90.9976 62.6513 90.9976 63.1729V72.1333C90.9976 72.655 90.576 73.0765 90.0544 73.0765ZM70.0899 71.1901H89.1112V64.1161H70.0899V71.1901Z" fill="#49A39E"/>
<path d="M37.7898 64.1184H27.336C26.8167 64.1184 26.3928 63.6969 26.3928 63.1752V54.2148C26.3928 53.6932 26.8143 53.2716 27.336 53.2716H37.7898C38.3091 53.2716 38.733 53.6932 38.733 54.2148V63.1752C38.733 63.6969 38.3115 64.1184 37.7898 64.1184ZM28.2792 62.232H36.8466V55.158H28.2792V62.232Z" fill="#49A39E"/>
<path d="M58.6952 64.1184H37.7898C37.2682 64.1184 36.8466 63.6969 36.8466 63.1752V54.2148C36.8466 53.6932 37.2682 53.2716 37.7898 53.2716H58.6952C59.2144 53.2716 59.636 53.6932 59.636 54.2148V63.1752C59.636 63.6969 59.2144 64.1184 58.6952 64.1184ZM38.7307 62.232H57.752V55.158H38.7307V62.232Z" fill="#49A39E"/>
<path d="M79.6006 64.1184H58.6952C58.1736 64.1184 57.752 63.6969 57.752 63.1752V54.2148C57.752 53.6932 58.1736 53.2716 58.6952 53.2716H79.6006C80.1222 53.2716 80.5438 53.6932 80.5438 54.2148V63.1752C80.5438 63.6969 80.1222 64.1184 79.6006 64.1184ZM59.636 62.232H78.6573V55.158H59.636V62.232Z" fill="#49A39E"/>
<path d="M90.0544 64.1184H79.6006C79.0813 64.1184 78.6573 63.6969 78.6573 63.1752V54.2148C78.6573 53.6932 79.0789 53.2716 79.6006 53.2716H90.0544C90.576 53.2716 90.9976 53.6932 90.9976 54.2148V63.1752C90.9976 63.6969 90.576 64.1184 90.0544 64.1184ZM80.5438 62.232H89.1112V55.158H80.5438V62.232Z" fill="#49A39E"/>
<path d="M48.2437 90.9975H27.8886C27.0668 90.9975 26.3951 90.3282 26.3951 89.504V81.0938C26.3951 80.5722 26.8167 80.153 27.3383 80.153H48.2437C48.7629 80.153 49.1869 80.5746 49.1869 81.0938V90.0543C49.1869 90.5735 48.7653 90.9951 48.2437 90.9951V90.9975ZM28.2792 89.1134H47.3005V82.0394H28.2792V89.1134Z" fill="#49A39E"/>
<path d="M69.1491 90.9975L48.2437 90.9975C47.7221 90.9975 47.3005 90.5759 47.3005 90.0566V81.0962C47.3005 80.5746 47.7221 80.1554 48.2437 80.1554H69.1491C69.6707 80.1554 70.0923 80.5769 70.0923 81.0962V90.0566C70.0923 90.5759 69.6707 90.9975 69.1491 90.9975ZM49.1869 89.1134H68.2082V82.0394H49.1869V89.1134Z" fill="#49A39E"/>
<path d="M89.5042 90.9975H69.1491C68.6298 90.9975 68.2082 90.5759 68.2082 90.0566V81.0962C68.2082 80.5746 68.6298 80.1554 69.1491 80.1554H90.0544C90.576 80.1554 90.9976 80.5769 90.9976 81.0962V89.5064C90.9976 90.3282 90.3283 90.9998 89.5042 90.9998V90.9975ZM70.0923 89.1134H89.1136V82.0394H70.0923V89.1134Z" fill="#49A39E"/>
<path d="M37.7898 82.037H27.336C26.8167 82.037 26.3928 81.6154 26.3928 81.0938V72.1333C26.3928 71.6117 26.8143 71.1901 27.336 71.1901H37.7898C38.3091 71.1901 38.733 71.6117 38.733 72.1333V81.0938C38.733 81.6154 38.3115 82.037 37.7898 82.037ZM28.2792 80.1529H36.8466V73.0789H28.2792V80.1529Z" fill="#49A39E"/>
<path d="M58.6952 82.037H37.7898C37.2682 82.037 36.8466 81.6154 36.8466 81.0938V72.1333C36.8466 71.6117 37.2682 71.1901 37.7898 71.1901H58.6952C59.2144 71.1901 59.636 71.6117 59.636 72.1333V81.0938C59.636 81.6154 59.2144 82.037 58.6952 82.037ZM38.7307 80.1529H57.752V73.0789H38.7307V80.1529Z" fill="#49A39E"/>
<path d="M79.6006 82.037H58.6952C58.1736 82.037 57.752 81.6154 57.752 81.0938V72.1333C57.752 71.6117 58.1736 71.1901 58.6952 71.1901H79.6006C80.1222 71.1901 80.5438 71.6117 80.5438 72.1333V81.0938C80.5438 81.6154 80.1222 82.037 79.6006 82.037ZM59.636 80.1529H78.6573V73.0789H59.636V80.1529Z" fill="#49A39E"/>
<path d="M90.0544 82.037H79.6006C79.0813 82.037 78.6573 81.6154 78.6573 81.0938V72.1333C78.6573 71.6117 79.0789 71.1901 79.6006 71.1901H90.0544C90.576 71.1901 90.9976 71.6117 90.9976 72.1333V81.0938C90.9976 81.6154 90.576 82.037 90.0544 82.037ZM80.5438 80.1529H89.1112V73.0789H80.5438V80.1529Z" fill="#49A39E"/>
<path d="M48.2437 37.2394H27.3383C26.8191 37.2394 26.3951 36.8179 26.3951 36.2962V27.886C26.3951 27.0643 27.0644 26.3926 27.8886 26.3926H48.2437M48.2437 37.2394C48.7653 37.2394 49.1869 36.8179 49.1869 36.2962V27.3358C49.1869 26.8142 48.7629 26.3926 48.2437 26.3926M48.2437 37.2394H69.1491M48.2437 37.2394C47.7221 37.2394 47.3005 36.8179 47.3005 36.2962V27.3358C47.3005 26.8142 47.7221 26.3926 48.2437 26.3926M48.2437 26.3926H69.1491M69.1491 37.2394C69.6707 37.2394 70.0923 36.8179 70.0923 36.2962V27.3358C70.0923 26.8142 69.6707 26.3926 69.1491 26.3926M69.1491 37.2394H90.0544C90.5761 37.2394 90.9976 36.8179 90.9976 36.2962M69.1491 37.2394C68.6298 37.2394 68.2082 36.8179 68.2082 36.2962V27.3358C68.2082 26.8142 68.6298 26.3926 69.1491 26.3926M69.1491 26.3926H89.5042C90.3283 26.3926 90.9976 27.0619 90.9976 27.886V36.2962M90.9976 36.2962C90.9976 35.7746 90.5761 35.353 90.0544 35.353H79.6006M90.9976 36.2962V45.2567C90.9976 45.7783 90.5761 46.1999 90.0544 46.1999H79.6006M48.2437 55.158H27.3383C26.8191 55.158 26.3951 54.7364 26.3951 54.2148V45.2543C26.3951 44.7327 26.8167 44.3111 27.3383 44.3111H48.2437M48.2437 55.158C48.7653 55.158 49.1869 54.7364 49.1869 54.2148V45.2543C49.1869 44.7327 48.7629 44.3111 48.2437 44.3111M48.2437 55.158H69.1491M48.2437 55.158C47.7221 55.158 47.3005 54.7364 47.3005 54.2148V45.2543C47.3005 44.7327 47.7221 44.3111 48.2437 44.3111M48.2437 44.3111H69.1491M69.1491 55.158C69.6707 55.158 70.0923 54.7364 70.0923 54.2148V45.2543C70.0923 44.7327 69.6707 44.3111 69.1491 44.3111M69.1491 55.158H90.0544C90.5761 55.158 90.9976 54.7364 90.9976 54.2148M69.1491 55.158C68.6298 55.158 68.2082 54.7364 68.2082 54.2148V45.2543C68.2082 44.7327 68.6298 44.3111 69.1491 44.3111M69.1491 44.3111H90.0544C90.5761 44.3111 90.9976 44.7327 90.9976 45.2543V54.2148M90.9976 54.2148C90.9976 53.6932 90.5761 53.2716 90.0544 53.2716H79.6006M90.9976 54.2148V63.1752C90.9976 63.6969 90.5761 64.1184 90.0544 64.1184H79.6006M37.7898 46.1999H27.336C26.8167 46.1999 26.3928 45.7783 26.3928 45.2567V36.2962C26.3928 35.7746 26.8143 35.353 27.336 35.353H37.7898M37.7898 46.1999C38.3115 46.1999 38.733 45.7783 38.733 45.2567V36.2962C38.733 35.7746 38.3091 35.353 37.7898 35.353M37.7898 46.1999H58.6952M37.7898 46.1999C37.2682 46.1999 36.8466 45.7783 36.8466 45.2567V36.2962C36.8466 35.7746 37.2682 35.353 37.7898 35.353M37.7898 35.353H58.6952M58.6952 46.1999C59.2144 46.1999 59.636 45.7783 59.636 45.2567V36.2962C59.636 35.7746 59.2144 35.353 58.6952 35.353M58.6952 46.1999H79.6006M58.6952 46.1999C58.1736 46.1999 57.752 45.7783 57.752 45.2567V36.2962C57.752 35.7746 58.1736 35.353 58.6952 35.353M58.6952 35.353H79.6006M79.6006 46.1999C80.1222 46.1999 80.5438 45.7783 80.5438 45.2567V36.2962C80.5438 35.7746 80.1222 35.353 79.6006 35.353M79.6006 46.1999C79.0813 46.1999 78.6573 45.7783 78.6573 45.2567V36.2962C78.6573 35.7746 79.0789 35.353 79.6006 35.353M48.2437 73.0765H27.3383C26.8191 73.0765 26.3951 72.655 26.3951 72.1333V63.1729C26.3951 62.6513 26.8167 62.2297 27.3383 62.2297H48.2437M48.2437 73.0765C48.7653 73.0765 49.1869 72.655 49.1869 72.1333V63.1729C49.1869 62.6513 48.7629 62.2297 48.2437 62.2297M48.2437 73.0765H69.1491M48.2437 73.0765C47.7221 73.0765 47.3005 72.655 47.3005 72.1333V63.1729C47.3005 62.6513 47.7221 62.2297 48.2437 62.2297M48.2437 62.2297H69.1491M69.1491 73.0765C69.6707 73.0765 70.0923 72.655 70.0923 72.1333V63.1729C70.0923 62.6513 69.6707 62.2297 69.1491 62.2297M69.1491 73.0765H90.0544C90.5761 73.0765 90.9976 72.655 90.9976 72.1333M69.1491 73.0765C68.6298 73.0765 68.2082 72.655 68.2082 72.1333V63.1729C68.2082 62.6513 68.6298 62.2297 69.1491 62.2297M69.1491 62.2297H90.0544C90.5761 62.2297 90.9976 62.6513 90.9976 63.1729V72.1333M90.9976 72.1333C90.9976 71.6117 90.5761 71.1901 90.0544 71.1901H79.6006M90.9976 72.1333V81.0938C90.9976 81.6154 90.5761 82.037 90.0544 82.037H79.6006M37.7898 64.1184H27.336C26.8167 64.1184 26.3928 63.6969 26.3928 63.1752V54.2148C26.3928 53.6932 26.8143 53.2716 27.336 53.2716H37.7898M37.7898 64.1184C38.3115 64.1184 38.733 63.6969 38.733 63.1752V54.2148C38.733 53.6932 38.3091 53.2716 37.7898 53.2716M37.7898 64.1184H58.6952M37.7898 64.1184C37.2682 64.1184 36.8466 63.6969 36.8466 63.1752V54.2148C36.8466 53.6932 37.2682 53.2716 37.7898 53.2716M37.7898 53.2716H58.6952M58.6952 64.1184C59.2144 64.1184 59.636 63.6969 59.636 63.1752V54.2148C59.636 53.6932 59.2144 53.2716 58.6952 53.2716M58.6952 64.1184H79.6006M58.6952 64.1184C58.1736 64.1184 57.752 63.6969 57.752 63.1752V54.2148C57.752 53.6932 58.1736 53.2716 58.6952 53.2716M58.6952 53.2716H79.6006M79.6006 64.1184C80.1222 64.1184 80.5438 63.6969 80.5438 63.1752V54.2148C80.5438 53.6932 80.1222 53.2716 79.6006 53.2716M79.6006 64.1184C79.0813 64.1184 78.6573 63.6969 78.6573 63.1752V54.2148C78.6573 53.6932 79.0789 53.2716 79.6006 53.2716M48.2437 90.9975H27.8886C27.0668 90.9975 26.3951 90.3282 26.3951 89.504V81.0938C26.3951 80.5722 26.8167 80.153 27.3383 80.153H48.2437C48.7629 80.153 49.1869 80.5746 49.1869 81.0938V90.0543C49.1869 90.5735 48.7653 90.9951 48.2437 90.9951V90.9975ZM48.2437 90.9975L69.1491 90.9975M48.2437 90.9975C47.7221 90.9975 47.3005 90.5759 47.3005 90.0566V81.0962C47.3005 80.5746 47.7221 80.1554 48.2437 80.1554H69.1491M69.1491 90.9975C69.6707 90.9975 70.0923 90.5759 70.0923 90.0566V81.0962C70.0923 80.5769 69.6707 80.1554 69.1491 80.1554M69.1491 90.9975H89.5042V90.9998C90.3283 90.9998 90.9976 90.3282 90.9976 89.5064V81.0962C90.9976 80.5769 90.5761 80.1554 90.0544 80.1554H69.1491M69.1491 90.9975C68.6298 90.9975 68.2082 90.5759 68.2082 90.0566V81.0962C68.2082 80.5746 68.6298 80.1554 69.1491 80.1554M37.7898 82.037H27.336C26.8167 82.037 26.3928 81.6154 26.3928 81.0938V72.1333C26.3928 71.6117 26.8143 71.1901 27.336 71.1901H37.7898M37.7898 82.037C38.3115 82.037 38.733 81.6154 38.733 81.0938V72.1333C38.733 71.6117 38.3091 71.1901 37.7898 71.1901M37.7898 82.037H58.6952M37.7898 82.037C37.2682 82.037 36.8466 81.6154 36.8466 81.0938V72.1333C36.8466 71.6117 37.2682 71.1901 37.7898 71.1901M37.7898 71.1901H58.6952M58.6952 82.037C59.2144 82.037 59.636 81.6154 59.636 81.0938V72.1333C59.636 71.6117 59.2144 71.1901 58.6952 71.1901M58.6952 82.037H79.6006M58.6952 82.037C58.1736 82.037 57.752 81.6154 57.752 81.0938V72.1333C57.752 71.6117 58.1736 71.1901 58.6952 71.1901M58.6952 71.1901H79.6006M79.6006 82.037C80.1222 82.037 80.5438 81.6154 80.5438 81.0938V72.1333C80.5438 71.6117 80.1222 71.1901 79.6006 71.1901M79.6006 82.037C79.0813 82.037 78.6573 81.6154 78.6573 81.0938V72.1333C78.6573 71.6117 79.0789 71.1901 79.6006 71.1901M28.2792 35.353H47.3005V28.279H28.2792V35.353ZM49.1869 35.353H68.2082V28.279H49.1869V35.353ZM70.0899 35.353H89.1112V28.279H70.0899V35.353ZM28.2792 53.2716H47.3005V46.1975H28.2792V53.2716ZM49.1869 53.2716H68.2082V46.1975H49.1869V53.2716ZM70.0899 53.2716H89.1112V46.1975H70.0899V53.2716ZM28.2792 44.3135H36.8466V37.2394H28.2792V44.3135ZM38.7307 44.3135H57.752V37.2394H38.7307V44.3135ZM59.636 44.3135H78.6573V37.2394H59.636V44.3135ZM80.5438 44.3135H89.1112V37.2394H80.5438V44.3135ZM28.2792 71.1901H47.3005V64.1161H28.2792V71.1901ZM49.1869 71.1901H68.2082V64.1161H49.1869V71.1901ZM70.0899 71.1901H89.1112V64.1161H70.0899V71.1901ZM28.2792 62.232H36.8466V55.158H28.2792V62.232ZM38.7307 62.232H57.752V55.158H38.7307V62.232ZM59.636 62.232H78.6573V55.158H59.636V62.232ZM80.5438 62.232H89.1112V55.158H80.5438V62.232ZM28.2792 89.1134H47.3005V82.0394H28.2792V89.1134ZM49.1869 89.1134H68.2082V82.0394H49.1869V89.1134ZM70.0923 89.1134H89.1136V82.0394H70.0923V89.1134ZM28.2792 80.1529H36.8466V73.0789H28.2792V80.1529ZM38.7307 80.1529H57.752V73.0789H38.7307V80.1529ZM59.636 80.1529H78.6573V73.0789H59.636V80.1529ZM80.5438 80.1529H89.1112V73.0789H80.5438V80.1529Z" stroke="#49A39E"/>
</svg>
