<svg width="86" height="90" viewBox="0 0 86 90" fill="none" xmlns="http://www.w3.org/2000/svg">
<path d="M85.4929 1.88465C85.4929 0.396181 85.0982 0.0111491 83.6069 0.0111491C66.4128 0.0111491 49.2164 0.0111491 32.0223 0.0111491C31.7576 0.0111491 31.4835 -0.0146759 31.2282 0.0369744C30.5381 0.177839 30.1316 0.612171 30.1292 1.32119C30.1268 2.03021 30.5286 2.47393 31.2188 2.61244C31.5307 2.67583 31.864 2.64297 32.1901 2.64297C48.6775 2.64297 65.1649 2.64297 81.65 2.64297C82.0234 2.64297 82.3992 2.64297 82.7939 2.64297C82.7939 30.9262 82.7939 59.0944 82.7939 87.3001C76.6064 87.3001 70.4614 87.3001 64.2574 87.3001C64.2574 86.8892 64.2574 86.5394 64.2574 86.1896C64.2574 75.7023 64.2573 65.2149 64.255 54.7299C64.255 54.3778 64.2668 54.0232 64.2172 53.6781C64.1132 52.9315 63.6594 52.5254 62.896 52.5371C62.1752 52.5489 61.745 52.948 61.6387 53.6499C61.5867 53.9951 61.5985 54.3496 61.5985 54.7017C61.5961 65.1891 61.5961 75.6764 61.5961 86.1614C61.5961 86.5324 61.5961 86.9057 61.5961 87.2907C60.6578 87.2907 59.8283 87.2907 58.9443 87.2907C58.9443 86.8118 58.9443 86.4033 58.9443 85.9948C58.9443 64.4355 58.9443 42.8762 58.9443 21.3169C58.9443 19.7016 58.5827 19.3424 56.9827 19.3424C47.2784 19.3424 37.5764 19.3424 27.8721 19.3424C27.6074 19.3424 27.3356 19.3166 27.078 19.3612C26.3902 19.481 25.9554 19.8754 25.927 20.5961C25.8963 21.3568 26.3193 21.8052 27.0426 21.9508C27.3545 22.0142 27.6901 21.9766 28.0139 21.9766C30.1292 21.9789 32.2421 21.9766 34.3787 21.9766C34.3787 43.8129 34.3787 65.5577 34.3787 87.3165C27.9336 87.3165 21.5452 87.3165 15.0575 87.3165C15.0575 86.9292 15.0575 86.5864 15.0575 86.2436C15.0575 82.992 15.0575 79.7404 15.0575 76.4888C15.0575 76.1953 15.0693 75.9018 15.0362 75.6107C14.9464 74.836 14.4099 74.3218 13.7033 74.3664C12.9517 74.4134 12.5168 74.836 12.4294 75.5802C12.3939 75.869 12.4034 76.1648 12.4034 76.4582C12.401 79.738 12.4034 83.0202 12.401 86.3C12.401 86.6357 12.3726 86.9738 12.3561 87.3048C11.4414 87.3048 10.6308 87.3048 9.74921 87.3048C9.74921 86.9315 9.74921 86.6122 9.74921 86.2929C9.74921 63.7664 9.74921 41.2398 9.74921 18.7156C9.74921 17.044 10.0919 16.7036 11.7605 16.7036C27.6878 16.7036 43.6127 16.7036 59.5399 16.7036C61.2676 16.7036 61.5985 17.0323 61.5985 18.7578C61.6008 28.1019 61.5985 37.4459 61.6008 46.7899C61.6008 47.1115 61.5938 47.4355 61.6268 47.7548C61.7048 48.5084 62.1633 48.9169 62.9007 48.9733C63.5909 49.0273 64.1463 48.4849 64.2361 47.7243C64.2645 47.4918 64.2574 47.2571 64.2574 47.0223C64.2574 37.5304 64.2621 28.0408 64.255 18.5489C64.2526 15.6025 62.6857 14.0647 59.7148 14.0647C43.7001 14.0647 27.6854 14.0647 11.6707 14.0647C11.406 14.0647 11.1389 14.0577 10.8742 14.0718C9.18199 14.161 7.66704 15.3278 7.26053 16.9477C7.1069 17.5628 7.0998 18.2249 7.0998 18.8658C7.09271 41.275 7.0927 63.6842 7.0927 86.0934C7.0927 86.4901 7.0927 86.8892 7.0927 87.3118C5.56592 87.3118 4.16441 87.3118 2.73925 87.3118C2.73925 59.0779 2.73925 30.891 2.73925 2.64062C3.15522 2.64062 3.505 2.64062 3.85479 2.64062C10.7561 2.64062 17.6573 2.64062 24.5586 2.64062C24.854 2.64062 25.1565 2.66879 25.4401 2.6101C26.1303 2.46689 26.532 2.02551 26.5297 1.31884C26.5273 0.609824 26.1208 0.175494 25.4307 0.0322815C25.1754 -0.0193688 24.9013 0.00645621 24.6366 0.00645621C17.0853 0.00645621 9.53651 0.00410847 1.9853 0.00645621C0.37343 0.00645621 0.0118288 0.360965 0.0118288 1.96917C0.00946532 30.6468 0.0118172 59.3244 0 88.0021C0 88.805 0.132363 89.4952 0.808309 90C28.7702 90 56.7322 90 84.6917 90C85.3275 89.5164 85.5 88.8707 85.5 88.0889C85.4929 59.3573 85.4953 30.621 85.4929 1.88465ZM56.2264 87.3377C49.8427 87.3377 43.5394 87.3377 37.1628 87.3377C37.1628 65.5999 37.1628 43.8622 37.1628 22.0541C43.4661 22.0541 49.812 22.0541 56.2264 22.0541C56.2264 43.7871 56.2264 65.5225 56.2264 87.3377ZM15.0599 23.3289C15.0599 38.4061 15.0599 53.4856 15.0575 68.5628C15.0575 68.9713 15.067 69.3868 14.9961 69.786C14.8779 70.448 14.417 70.8143 13.7576 70.8237C13.0557 70.8354 12.5901 70.4551 12.4554 69.7554C12.401 69.4714 12.4057 69.1732 12.4057 68.8821C12.4034 53.0137 12.4034 37.1453 12.4057 21.2746C12.4057 19.7251 12.7886 19.3471 14.3201 19.3448C16.4425 19.3424 18.5649 19.3401 20.6872 19.3471C21.7248 19.3495 22.3416 19.8331 22.3606 20.6337C22.3818 21.4648 21.7437 21.9766 20.6565 21.9789C18.8343 21.9836 17.0121 21.9813 15.0599 21.9813C15.0599 22.5119 15.0599 22.9204 15.0599 23.3289ZM68.6888 51.2764C68.7124 52.847 69.5137 53.6664 71.0877 53.7063C72.735 53.7486 74.3871 53.7509 76.0344 53.7039C77.5683 53.6617 78.3908 52.8494 78.4002 51.3351C78.431 47.3557 78.4286 43.3786 78.4026 39.3992C78.3907 37.8356 77.547 37.0467 75.9611 37.028C74.4013 37.0068 72.839 37.0139 71.2792 37.0256C69.4853 37.0373 68.6983 37.8144 68.6841 39.6034C68.6675 41.5051 68.6794 43.4068 68.6817 45.3084C68.6817 47.297 68.6605 49.2878 68.6888 51.2764ZM75.7295 50.6871C75.7272 50.8209 75.4388 51.0557 75.2805 51.0604C74.0208 51.0909 72.761 51.0768 71.421 51.0768C71.421 49.6048 71.421 48.2032 71.421 46.7429C72.8438 46.7429 74.2382 46.7429 75.7508 46.7429C75.7484 48.0835 75.7626 49.3865 75.7295 50.6871ZM71.4162 39.7114C72.8438 39.7114 74.2382 39.7114 75.7532 39.7114C75.7532 41.0262 75.7697 42.2986 75.7319 43.5711C75.7272 43.7331 75.4388 44.0195 75.2734 44.0242C74.0136 44.0618 72.7539 44.0453 71.4162 44.0453C71.4162 42.5733 71.4162 41.1694 71.4162 39.7114ZM25.1849 8.90908C26.1066 7.88312 27.0355 6.86655 27.9832 5.86641C28.7253 5.08227 29.4438 5.06818 30.1836 5.84059C31.1573 6.85716 32.1122 7.89251 33.0504 8.94195C33.6578 9.62045 33.6484 10.3647 33.0812 10.8953C32.5139 11.4235 31.7553 11.3813 31.1266 10.7403C30.453 10.0524 29.8078 9.33637 29.0893 8.56631C28.3897 9.32463 27.7847 10.0008 27.156 10.6558C26.4753 11.3672 25.7426 11.4517 25.14 10.9187C24.5444 10.3882 24.5468 9.62045 25.1849 8.90908ZM41.1523 10.6887C40.1809 9.66975 39.2237 8.63674 38.2854 7.58731C37.6804 6.91116 37.7017 6.16457 38.2854 5.63868C38.8598 5.11983 39.6043 5.17383 40.2377 5.8218C40.9112 6.50969 41.5565 7.22341 42.2608 7.97703C42.9415 7.23984 43.5654 6.54961 44.2106 5.8758C44.8842 5.17383 45.6287 5.0987 46.2243 5.64103C46.8151 6.17866 46.8033 6.93463 46.1581 7.65304C45.2364 8.679 44.3075 9.69792 43.3574 10.6957C42.6153 11.4705 41.8921 11.4658 41.1523 10.6887Z" fill="#49A39E"/>
</svg>
