<svg width="110" height="90" viewBox="0 0 110 90" fill="none" xmlns="http://www.w3.org/2000/svg">
<path d="M48.7448 0.0664959C48.2731 0.109383 46.6434 0.302374 45.0994 0.495363C32.1905 2.03929 19.6247 6.8426 8.9888 14.262C5.53642 16.6637 1.93393 19.6657 1.24774 20.7165C-1.19681 24.4047 0.0683537 29.2509 4.01394 31.1808C5.06466 31.7169 5.45064 31.7812 7.25189 31.7812C9.71787 31.7812 10.0181 31.6526 13.3632 28.9722C16.4511 26.5276 18.2309 25.2839 21.0185 23.6113C41.6899 11.3028 67.5292 11.1956 88.2435 23.3326C90.7524 24.8122 93.5615 26.7635 96.392 29.0151C99.6943 31.6526 99.9945 31.7812 102.46 31.7812C104.262 31.7812 104.648 31.7169 105.698 31.1808C109.623 29.2724 110.909 24.3833 108.486 20.7379C106.813 18.2076 98.0431 12.0319 91.3099 8.6224C82.8612 4.35517 74.4769 1.78197 64.6558 0.452477C62.3614 0.130827 50.8248 -0.126493 48.7448 0.0664959ZM64.5057 3.90486C77.3288 5.68466 88.0934 9.80179 98.4935 16.8995C101.496 18.9367 105.205 21.9602 105.698 22.7536C106.578 24.2117 106.47 25.8629 105.42 27.0852C104.519 28.093 103.769 28.4575 102.503 28.4575C101.303 28.4575 101.324 28.4575 96.6279 24.8979C86.9784 17.5643 76.2352 13.1684 63.648 11.3886C61.5894 11.0884 59.5523 11.0026 54.8562 11.0026C50.1601 11.0026 48.123 11.0884 46.0644 11.3886C33.4557 13.1684 22.6697 17.5857 13.0845 24.8979C8.40983 28.4575 8.40983 28.4575 7.209 28.4575C5.94384 28.4575 5.19332 28.093 4.2927 27.0852C3.24197 25.8629 3.13476 24.2117 4.01394 22.7536C4.52858 21.9173 8.25972 18.8938 11.5406 16.6851C22.4338 9.26571 34.485 4.93414 47.8871 3.60465C50.8677 3.30445 61.6109 3.49744 64.5057 3.90486Z" fill="#49A39E"/>
<path d="M49.6026 22.0247C39.0953 23.0754 29.5101 26.635 21.0829 32.5962C16.8157 35.6198 15.8293 36.9707 15.6577 39.9299C15.5934 41.3237 15.6577 41.8812 16.0437 42.8676C16.6441 44.4759 18.0379 45.9984 19.6247 46.7918C20.6969 47.3278 21.1258 47.4136 22.6911 47.4351C24.8998 47.4351 25.7576 47.092 28.2664 45.1835C43.8772 33.3039 65.6637 33.2824 81.3602 45.0977C83.9763 47.0705 84.8126 47.4351 86.9141 47.4351C88.3293 47.4351 88.844 47.3278 89.8304 46.8775C91.3957 46.1485 92.5751 45.0548 93.3685 43.6396C93.9475 42.5889 93.9904 42.3315 93.9904 40.3587C93.9904 38.4503 93.926 38.1072 93.4114 37.1422C92.7467 35.8556 91.6102 34.762 89.2085 33.0037C81.8534 27.5999 72.6542 23.8259 63.4121 22.4321C60.1098 21.9389 52.669 21.7244 49.6026 22.0247ZM62.9404 25.863C72.2897 27.2783 80.674 30.8379 88.3293 36.6276C90.152 38 90.6667 38.8363 90.6667 40.3587C90.6667 41.5596 90.3021 42.3315 89.2943 43.2107C87.9219 44.4115 86.2493 44.3901 84.5124 43.1464C79.6019 39.5868 76.3425 37.7212 72.4612 36.1773C63.1334 32.489 53.0335 31.8243 43.2339 34.2474C36.951 35.8127 31.8046 38.3645 25.2 43.1249C23.4631 44.3901 21.7905 44.4115 20.4181 43.2107C19.4103 42.3315 19.0458 41.5596 19.0458 40.3587C19.0458 38.8363 19.5604 38 21.3831 36.6276C29.8318 30.2375 39.1811 26.5707 49.9242 25.4556C52.7976 25.1554 59.7024 25.3698 62.9404 25.863Z" fill="#49A39E"/>
<path d="M52.2829 43.8108C48.1873 44.1754 43.727 45.2904 40.2532 46.8129C37.4656 48.0137 34.1204 50.0937 33.0697 51.2517C29.9175 54.747 31.054 60.4295 35.2998 62.488C36.3291 62.9812 36.8008 63.067 38.3662 63.0884C40.1674 63.0884 40.2961 63.0455 41.9043 62.1664C47.0936 59.3787 49.3452 58.5639 52.8834 58.3066C58.2442 57.8777 61.4178 58.714 67.9581 62.2521C72.7399 64.8468 78.4439 61.4587 78.4439 56.0121C78.4439 53.01 77.0715 51.0158 73.4904 48.9144C68.0224 45.6764 62.4042 44.0467 56.0141 43.8323C54.4916 43.768 52.819 43.768 52.2829 43.8108ZM57.8582 47.3276C63.2834 47.8851 68.1939 49.5577 72.3539 52.2166C74.3482 53.5032 75.0129 54.4468 75.0129 55.9907C75.0129 58.0707 73.3189 59.7647 71.2818 59.7647C70.5741 59.7647 70.2739 59.6146 66.8216 57.749C63.1333 55.7548 59.2735 54.7898 54.8561 54.7898C50.5031 54.7898 46.6433 55.7334 43.0623 57.6633C39.5241 59.5717 39.1167 59.7647 38.4305 59.7647C37.0581 59.7647 35.6858 58.8855 34.9996 57.5775C34.5493 56.6983 34.6136 55.1329 35.1711 54.1465C36.2862 52.1738 42.998 48.9358 48.1658 47.8636C51.6182 47.1774 54.6417 47.0059 57.8582 47.3276Z" fill="#49A39E"/>
<path d="M53.4624 66.1121C50.7176 66.5409 48.3159 67.7418 46.386 69.7146C44.6277 71.4944 43.8557 72.8239 43.2767 75.1183C41.3468 82.6664 47.0508 90 54.8562 90C61.4607 90 66.843 84.5963 66.8645 77.9703C66.8645 76.4478 66.1783 73.7674 65.4278 72.3521C64.6129 70.8296 61.8896 68.1492 60.41 67.4201C58.3729 66.4123 55.3279 65.8333 53.4624 66.1121ZM57.8797 70.0577C59.4022 70.6152 61.0962 71.9661 61.911 73.2527C64.2913 76.9624 63.7766 81.3583 60.6244 84.3175C60.0455 84.8536 59.0162 85.5612 58.33 85.8829C57.2578 86.3975 56.8504 86.4618 54.8562 86.4618C52.8619 86.4618 52.4545 86.3975 51.3823 85.8829C47.4368 84.0387 45.4425 79.6643 46.6862 75.6544C47.6941 72.4379 50.2244 70.1863 53.5696 69.543C54.5131 69.3715 56.7861 69.6288 57.8797 70.0577Z" fill="#49A39E"/>
</svg>
