<svg width="110" height="92" viewBox="0 0 110 92" fill="none" xmlns="http://www.w3.org/2000/svg">
<path d="M26.3341 1.20506C25.8731 1.4746 25.8923 2.28322 26.4109 3.41913C27.1408 5.03637 27.0255 6.92314 26.046 9.84956C24.7591 13.6231 24.6631 15.6446 25.6042 18.186C26.0844 19.4759 26.3533 19.707 27.1792 19.63C28.1203 19.5337 28.2932 18.8406 27.6978 17.5122C27.3328 16.6843 27.2368 16.1645 27.2368 14.759C27.2368 13.1995 27.3328 12.776 28.1011 10.5234C28.9078 8.17457 28.9654 7.88578 28.9654 5.99901C28.9654 2.41799 27.813 0.33869 26.3341 1.20506Z" fill="#49A39E"/>
<path d="M40.1055 1.37834C39.7406 1.78265 39.7598 2.03294 40.3744 3.68868C41.0274 5.44068 40.9122 6.73061 39.875 9.88807C39.0107 12.5064 38.9723 12.7375 38.9723 14.759C38.9723 16.4918 39.0491 17.0694 39.4141 17.9935C39.9326 19.3219 40.2592 19.6685 40.9506 19.6685C42.007 19.6685 42.1799 18.9561 41.5076 17.3196C40.797 15.5676 40.9122 13.7771 41.9878 10.4657C42.7945 8.0013 42.8905 7.53923 42.8905 5.94125C42.8905 4.55505 42.7753 3.8812 42.4104 2.8223C42.1414 2.07144 41.7957 1.35909 41.6037 1.22432C41.1235 0.877771 40.5089 0.93553 40.1055 1.37834Z" fill="#49A39E"/>
<path d="M53.9346 1.45535C53.6273 1.93667 53.6273 2.01368 54.1266 3.24586C54.9333 5.24815 54.8565 6.59585 53.7617 9.98433C53.2815 11.4668 52.8398 13.2573 52.7629 13.9312C52.6093 15.4521 52.9166 17.1464 53.6081 18.5133C54.0498 19.4374 54.2035 19.5722 54.7413 19.63C55.2214 19.6877 55.4135 19.5915 55.6632 19.2064C55.9705 18.7443 55.9513 18.6481 55.4711 17.4159C54.6644 15.4329 54.7413 14.0659 55.8361 10.6774C56.9117 7.32745 57.0653 5.97976 56.6428 4.05448C56.201 2.07144 55.6248 1.1088 54.8565 1.03179C54.3763 0.974035 54.1843 1.0703 53.9346 1.45535Z" fill="#49A39E"/>
<path d="M68.0133 1.20506C67.5523 1.4746 67.5715 2.28322 68.0901 3.41913C68.8008 5.01711 68.7048 6.92314 67.7252 9.84956C66.7264 12.8915 66.688 13.0455 66.688 14.8168C66.688 16.357 67.1874 18.417 67.7636 19.2257C68.1286 19.7647 69.0313 19.8225 69.4923 19.3412C69.8572 18.9754 69.8188 18.5711 69.2042 16.8768C68.5895 15.2018 68.7432 13.5076 69.7996 10.5234C70.5486 8.3671 70.6063 8.0783 70.6255 6.09527C70.6639 2.43724 69.5307 0.319437 68.0133 1.20506Z" fill="#49A39E"/>
<path d="M81.7848 1.37834C81.4198 1.78265 81.439 2.03294 82.0536 3.68868C82.7067 5.44068 82.5914 6.73061 81.5543 9.88807C80.6899 12.5064 80.6515 12.7375 80.6515 14.759C80.6515 16.4918 80.7284 17.0694 81.0933 17.9935C81.6119 19.3219 81.9384 19.6685 82.6299 19.6685C83.6862 19.6685 83.8591 18.9561 83.1869 17.3196C82.4762 15.5484 82.5914 13.7771 83.6862 10.4271C84.8195 6.94239 84.9155 5.24815 84.1088 2.91857C83.8399 2.1292 83.475 1.35909 83.2829 1.22432C82.8027 0.877771 82.1881 0.93553 81.7848 1.37834Z" fill="#49A39E"/>
<path d="M23.5875 24.2314C21.7436 24.4817 19.9381 25.5213 18.7857 27.0038C17.7485 28.3515 17.4988 29.2756 17.3644 32.1828L17.2491 34.7819L14.9443 34.8782C12.4282 34.9744 11.5447 35.3017 11.0069 36.3221L10.7572 36.8034H6.30114C2.76705 36.8034 1.78749 36.8612 1.48018 37.073C1.13445 37.3425 1.11524 37.6121 1.11524 41.9054C1.11524 46.1988 1.13445 46.4683 1.48018 46.7379C1.78749 46.9497 2.76705 47.0074 6.28193 47.0074H10.7188L11.1413 47.662C11.7943 48.6632 12.6971 48.9904 15.194 49.0867L17.3452 49.183V62.9487L15.098 63.0065C13.1388 63.0835 12.7355 63.1412 12.1209 63.5263C11.7175 63.7766 11.2373 64.2386 11.0645 64.5467L10.738 65.105H6.30114C2.76705 65.105 1.78749 65.1628 1.48018 65.3746C1.13445 65.6248 1.11524 65.9521 1.05762 69.9952L1 74.3464L1.96035 75.309H10.6419L11.2566 76.0021C12.1401 77.0417 12.7931 77.2343 15.2132 77.2343H17.326L17.3836 81.5276C17.4412 85.6862 17.4604 85.821 17.9598 86.8992C18.6705 88.4201 19.8421 89.6331 21.3594 90.3839L22.6271 91H86.9707L88.2383 90.3839C89.7557 89.6331 90.9273 88.4201 91.638 86.8992C92.1373 85.821 92.1565 85.6862 92.2142 81.5084L92.2718 77.2343H94.3846C96.8047 77.2343 97.4577 77.0417 98.3412 76.0021L98.9558 75.309H107.637L108.598 74.3464L108.54 69.9952C108.483 65.9521 108.463 65.6248 108.118 65.3746C107.81 65.1628 106.831 65.105 103.297 65.105H98.8598L98.5333 64.5467C98.3604 64.2386 97.8802 63.7766 97.4769 63.5263C96.8623 63.1412 96.4589 63.0835 94.519 63.0065L92.2526 62.9487V49.1637L94.423 49.0867C96.8623 49.0097 97.9187 48.6246 98.5333 47.585L98.8598 47.0074H103.297C106.831 47.0074 107.81 46.9497 108.118 46.7379C108.463 46.4683 108.483 46.1988 108.483 41.9054C108.483 37.6121 108.463 37.3425 108.118 37.073C107.81 36.8612 106.831 36.8034 103.297 36.8034H98.8406L98.5909 36.3221C98.0531 35.3017 97.1696 34.9744 94.6535 34.8782L92.3486 34.7819L92.2334 32.1828C92.1181 29.3334 91.8877 28.467 90.8889 27.0808C90.1974 26.1182 88.7569 25.0593 87.4508 24.5394C86.6441 24.2121 84.8003 24.1929 55.3751 24.1736C38.204 24.1544 23.914 24.1929 23.5875 24.2314ZM87.1627 26.869C88.2191 27.3503 89.2371 28.39 89.7365 29.4681C90.0246 30.1035 90.0438 32.6833 90.0438 57.6927C90.0438 84.2038 90.0246 85.2434 89.6788 85.898C89.0258 87.1302 88.4688 87.727 87.4316 88.3046L86.3944 88.8822H54.7989C24.3173 88.8822 23.1841 88.8629 22.5311 88.5164C21.3018 87.8618 20.7064 87.3035 20.1302 86.2638L19.554 85.2242V57.6927C19.554 32.6833 19.5732 30.1035 19.8613 29.4681C20.3607 28.39 21.3787 27.3503 22.435 26.869L23.3954 26.4069H86.2024L87.1627 26.869ZM17.3452 46.8149H15.3476C13.3885 46.8149 13.3309 46.7956 12.9276 46.2951C12.5434 45.7945 12.5242 45.602 12.5818 41.7514C12.6587 36.8034 12.5242 36.996 15.4437 36.996H17.3452V46.8149ZM96.5934 37.4003C96.9199 37.7661 96.9583 38.1896 97.0159 41.7899C97.0735 45.602 97.0543 45.7945 96.6702 46.2951C96.2669 46.7956 96.2092 46.8149 94.2501 46.8149H92.2526V36.996H94.2309C96.0172 36.996 96.2669 37.0345 96.5934 37.4003ZM10.3346 44.7933L7.26149 44.8511C5.57127 44.8704 3.9963 44.8511 3.76581 44.7933C3.32405 44.6971 3.32405 44.6393 3.32405 41.9054V39.1138H10.4499L10.3346 44.7933ZM106.178 44.7933H99.2631L99.1479 39.1138H106.293L106.178 44.7933ZM17.3452 75.1165H15.4245C13.619 75.1165 13.4462 75.078 13.0236 74.6351C12.5434 74.1731 12.5434 74.1538 12.5434 70.2455C12.5434 65.1628 12.4666 65.2975 15.3476 65.2975H17.3452V75.1165ZM96.6702 65.8174C97.0543 66.3179 97.0735 66.5105 97.0159 70.361C96.9391 75.309 97.0735 75.1165 94.1541 75.1165H92.2526V65.2975H94.2501C96.2092 65.2975 96.2669 65.3168 96.6702 65.8174ZM10.4306 70.2263V72.9987H3.32405V67.4154L6.7429 67.3768C8.60598 67.3383 10.2002 67.3383 10.2962 67.3768C10.373 67.4154 10.4306 68.686 10.4306 70.2263ZM106.274 72.9987H99.1671V67.4154H106.274V72.9987Z" fill="#49A39E"/>
<path d="M27.3328 32.9336C27.1984 33.1839 27.1408 41.2701 27.1408 57.7505C27.1408 81.1811 27.16 82.2015 27.4865 82.4903C27.8898 82.8561 28.3508 82.8946 28.8886 82.625C29.2535 82.4133 29.2535 81.9512 29.2535 57.7312C29.2535 38.7672 29.1959 32.9721 29.0231 32.7989C28.6389 32.4138 27.5633 32.5101 27.3328 32.9336Z" fill="#49A39E"/>
<path d="M36.1681 32.9336C36.0336 33.1839 35.976 41.2701 35.976 57.7505C35.976 81.1811 35.9952 82.2015 36.3217 82.4903C36.8019 82.9331 37.4357 82.8946 37.8967 82.4325C38.2808 82.0475 38.2808 81.7972 38.2808 57.7312C38.2808 30.7196 38.3769 32.5678 37.0324 32.5678C36.5714 32.5678 36.3025 32.6834 36.1681 32.9336Z" fill="#49A39E"/>
<path d="M45.1185 32.8759C44.8496 33.1454 44.8112 35.6483 44.8112 57.5579C44.8112 79.3328 44.8496 82.009 45.1185 82.394C45.4835 82.9331 46.2133 82.9523 46.7319 82.4325C47.1161 82.0475 47.1161 81.7972 47.1161 57.7312C47.1161 36.0333 47.0777 33.3765 46.8088 32.9914C46.463 32.4908 45.5603 32.4138 45.1185 32.8759Z" fill="#49A39E"/>
<path d="M53.973 32.9144C53.6657 33.2417 53.6465 35.2247 53.6465 57.6157C53.6465 84.4348 53.5696 82.8176 54.7989 82.8176C56.0281 82.8176 55.9513 84.4348 55.9513 57.5772C55.9513 34.2043 55.9321 33.1839 55.6056 32.8951C55.1446 32.4716 54.3571 32.4908 53.973 32.9144Z" fill="#49A39E"/>
<path d="M62.789 32.9914C62.5201 33.3765 62.4817 36.0333 62.4817 57.7312C62.4817 81.7972 62.4817 82.0475 62.8658 82.4325C63.3844 82.9523 64.1143 82.9331 64.4792 82.394C64.7481 82.009 64.7865 79.3328 64.7865 57.5579C64.7865 35.6483 64.7481 33.1454 64.4792 32.8759C64.0375 32.4138 63.1347 32.4908 62.789 32.9914Z" fill="#49A39E"/>
<path d="M71.605 33.0107C71.3361 33.415 71.3169 36.2066 71.3553 57.866C71.413 81.7779 71.413 82.2785 71.7779 82.548C72.2965 82.9138 72.9303 82.8946 73.2952 82.471C73.6026 82.1437 73.6218 80.1414 73.6218 57.712C73.6218 41.2701 73.5641 33.1839 73.4297 32.9336C73.1224 32.3753 71.9892 32.4331 71.605 33.0107Z" fill="#49A39E"/>
<path d="M80.5747 32.7989C80.4018 32.9721 80.3442 38.7672 80.3442 57.7312C80.3442 81.9512 80.3442 82.4133 80.7092 82.625C81.2662 82.9138 81.7848 82.8561 82.1305 82.471C82.4378 82.1437 82.457 80.1414 82.457 57.712C82.457 41.2701 82.3994 33.1839 82.2649 32.9336C82.0344 32.5101 80.9588 32.4138 80.5747 32.7989Z" fill="#49A39E"/>
<path d="M26.3341 1.20506C25.8731 1.4746 25.8923 2.28322 26.4109 3.41913C27.1408 5.03637 27.0255 6.92314 26.046 9.84956C24.7591 13.6231 24.6631 15.6446 25.6042 18.186C26.0844 19.4759 26.3533 19.707 27.1792 19.63C28.1203 19.5337 28.2932 18.8406 27.6978 17.5122C27.3328 16.6843 27.2368 16.1645 27.2368 14.759C27.2368 13.1995 27.3328 12.776 28.1011 10.5234C28.9078 8.17457 28.9654 7.88578 28.9654 5.99901C28.9654 2.41799 27.813 0.33869 26.3341 1.20506Z" stroke="#49A39E"/>
<path d="M40.1055 1.37834C39.7406 1.78265 39.7598 2.03294 40.3744 3.68868C41.0274 5.44068 40.9122 6.73061 39.875 9.88807C39.0107 12.5064 38.9723 12.7375 38.9723 14.759C38.9723 16.4918 39.0491 17.0694 39.4141 17.9935C39.9326 19.3219 40.2592 19.6685 40.9506 19.6685C42.007 19.6685 42.1799 18.9561 41.5076 17.3196C40.797 15.5676 40.9122 13.7771 41.9878 10.4657C42.7945 8.0013 42.8905 7.53923 42.8905 5.94125C42.8905 4.55505 42.7753 3.8812 42.4104 2.8223C42.1414 2.07144 41.7957 1.35909 41.6037 1.22432C41.1235 0.877771 40.5089 0.93553 40.1055 1.37834Z" stroke="#49A39E"/>
<path d="M53.9346 1.45535C53.6273 1.93667 53.6273 2.01368 54.1266 3.24586C54.9333 5.24815 54.8565 6.59585 53.7617 9.98433C53.2815 11.4668 52.8398 13.2573 52.7629 13.9312C52.6093 15.4521 52.9166 17.1464 53.6081 18.5133C54.0498 19.4374 54.2035 19.5722 54.7413 19.63C55.2214 19.6877 55.4135 19.5915 55.6632 19.2064C55.9705 18.7443 55.9513 18.6481 55.4711 17.4159C54.6644 15.4329 54.7413 14.0659 55.8361 10.6774C56.9117 7.32745 57.0653 5.97976 56.6428 4.05448C56.201 2.07144 55.6248 1.1088 54.8565 1.03179C54.3763 0.974035 54.1843 1.0703 53.9346 1.45535Z" stroke="#49A39E"/>
<path d="M68.0133 1.20506C67.5523 1.4746 67.5715 2.28322 68.0901 3.41913C68.8008 5.01711 68.7048 6.92314 67.7252 9.84956C66.7264 12.8915 66.688 13.0455 66.688 14.8168C66.688 16.357 67.1874 18.417 67.7636 19.2257C68.1286 19.7647 69.0313 19.8225 69.4923 19.3412C69.8572 18.9754 69.8188 18.5711 69.2042 16.8768C68.5895 15.2018 68.7432 13.5076 69.7996 10.5234C70.5486 8.3671 70.6063 8.0783 70.6255 6.09527C70.6639 2.43724 69.5307 0.319437 68.0133 1.20506Z" stroke="#49A39E"/>
<path d="M81.7848 1.37834C81.4198 1.78265 81.439 2.03294 82.0536 3.68868C82.7067 5.44068 82.5914 6.73061 81.5543 9.88807C80.6899 12.5064 80.6515 12.7375 80.6515 14.759C80.6515 16.4918 80.7284 17.0694 81.0933 17.9935C81.6119 19.3219 81.9384 19.6685 82.6299 19.6685C83.6862 19.6685 83.8591 18.9561 83.1869 17.3196C82.4762 15.5484 82.5914 13.7771 83.6862 10.4271C84.8195 6.94239 84.9155 5.24815 84.1088 2.91857C83.8399 2.1292 83.475 1.35909 83.2829 1.22432C82.8027 0.877771 82.1881 0.93553 81.7848 1.37834Z" stroke="#49A39E"/>
<path d="M23.5875 24.2314C21.7436 24.4817 19.9381 25.5213 18.7857 27.0038C17.7485 28.3515 17.4988 29.2756 17.3644 32.1828L17.2491 34.7819L14.9443 34.8782C12.4282 34.9744 11.5447 35.3017 11.0069 36.3221L10.7572 36.8034H6.30114C2.76705 36.8034 1.78749 36.8612 1.48018 37.073C1.13445 37.3425 1.11524 37.6121 1.11524 41.9054C1.11524 46.1988 1.13445 46.4683 1.48018 46.7379C1.78749 46.9497 2.76705 47.0074 6.28193 47.0074H10.7188L11.1413 47.662C11.7943 48.6632 12.6971 48.9904 15.194 49.0867L17.3452 49.183V62.9487L15.098 63.0065C13.1388 63.0835 12.7355 63.1412 12.1209 63.5263C11.7175 63.7766 11.2373 64.2386 11.0645 64.5467L10.738 65.105H6.30114C2.76705 65.105 1.78749 65.1628 1.48018 65.3746C1.13445 65.6248 1.11524 65.9521 1.05762 69.9952L1 74.3464L1.96035 75.309H10.6419L11.2566 76.0021C12.1401 77.0417 12.7931 77.2343 15.2132 77.2343H17.326L17.3836 81.5276C17.4412 85.6862 17.4604 85.821 17.9598 86.8992C18.6705 88.4201 19.8421 89.6331 21.3594 90.3839L22.6271 91H86.9707L88.2383 90.3839C89.7557 89.6331 90.9273 88.4201 91.638 86.8992C92.1373 85.821 92.1565 85.6862 92.2142 81.5084L92.2718 77.2343H94.3846C96.8047 77.2343 97.4577 77.0417 98.3412 76.0021L98.9558 75.309H107.637L108.598 74.3464L108.54 69.9952C108.483 65.9521 108.463 65.6248 108.118 65.3746C107.81 65.1628 106.831 65.105 103.297 65.105H98.8598L98.5333 64.5467C98.3604 64.2386 97.8802 63.7766 97.4769 63.5263C96.8623 63.1412 96.4589 63.0835 94.519 63.0065L92.2526 62.9487V49.1637L94.423 49.0867C96.8623 49.0097 97.9187 48.6246 98.5333 47.585L98.8598 47.0074H103.297C106.831 47.0074 107.81 46.9497 108.118 46.7379C108.463 46.4683 108.483 46.1988 108.483 41.9054C108.483 37.6121 108.463 37.3425 108.118 37.073C107.81 36.8612 106.831 36.8034 103.297 36.8034H98.8406L98.5909 36.3221C98.0531 35.3017 97.1696 34.9744 94.6535 34.8782L92.3486 34.7819L92.2334 32.1828C92.1181 29.3334 91.8877 28.467 90.8889 27.0808C90.1974 26.1182 88.7569 25.0593 87.4508 24.5394C86.6441 24.2121 84.8003 24.1929 55.3751 24.1736C38.204 24.1544 23.914 24.1929 23.5875 24.2314ZM87.1627 26.869C88.2191 27.3503 89.2371 28.39 89.7365 29.4681C90.0246 30.1035 90.0438 32.6833 90.0438 57.6927C90.0438 84.2038 90.0246 85.2434 89.6788 85.898C89.0258 87.1302 88.4688 87.727 87.4316 88.3046L86.3944 88.8822H54.7989C24.3173 88.8822 23.1841 88.8629 22.5311 88.5164C21.3018 87.8618 20.7064 87.3035 20.1302 86.2638L19.554 85.2242V57.6927C19.554 32.6833 19.5732 30.1035 19.8613 29.4681C20.3607 28.39 21.3787 27.3503 22.435 26.869L23.3954 26.4069H86.2024L87.1627 26.869ZM17.3452 46.8149H15.3476C13.3885 46.8149 13.3309 46.7956 12.9276 46.2951C12.5434 45.7945 12.5242 45.602 12.5818 41.7514C12.6587 36.8034 12.5242 36.996 15.4437 36.996H17.3452V46.8149ZM96.5934 37.4003C96.9199 37.7661 96.9583 38.1896 97.0159 41.7899C97.0735 45.602 97.0543 45.7945 96.6702 46.2951C96.2669 46.7956 96.2092 46.8149 94.2501 46.8149H92.2526V36.996H94.2309C96.0172 36.996 96.2669 37.0345 96.5934 37.4003ZM10.3346 44.7933L7.26149 44.8511C5.57127 44.8704 3.9963 44.8511 3.76581 44.7933C3.32405 44.6971 3.32405 44.6393 3.32405 41.9054V39.1138H10.4499L10.3346 44.7933ZM106.178 44.7933H99.2631L99.1479 39.1138H106.293L106.178 44.7933ZM17.3452 75.1165H15.4245C13.619 75.1165 13.4462 75.078 13.0236 74.6351C12.5434 74.1731 12.5434 74.1538 12.5434 70.2455C12.5434 65.1628 12.4666 65.2975 15.3476 65.2975H17.3452V75.1165ZM96.6702 65.8174C97.0543 66.3179 97.0735 66.5105 97.0159 70.361C96.9391 75.309 97.0735 75.1165 94.1541 75.1165H92.2526V65.2975H94.2501C96.2092 65.2975 96.2669 65.3168 96.6702 65.8174ZM10.4306 70.2263V72.9987H3.32405V67.4154L6.7429 67.3768C8.60598 67.3383 10.2002 67.3383 10.2962 67.3768C10.373 67.4154 10.4306 68.686 10.4306 70.2263ZM106.274 72.9987H99.1671V67.4154H106.274V72.9987Z" stroke="#49A39E"/>
<path d="M27.3328 32.9336C27.1984 33.1839 27.1408 41.2701 27.1408 57.7505C27.1408 81.1811 27.16 82.2015 27.4865 82.4903C27.8898 82.8561 28.3508 82.8946 28.8886 82.625C29.2535 82.4133 29.2535 81.9512 29.2535 57.7312C29.2535 38.7672 29.1959 32.9721 29.0231 32.7989C28.6389 32.4138 27.5633 32.5101 27.3328 32.9336Z" stroke="#49A39E"/>
<path d="M36.1681 32.9336C36.0336 33.1839 35.976 41.2701 35.976 57.7505C35.976 81.1811 35.9952 82.2015 36.3217 82.4903C36.8019 82.9331 37.4357 82.8946 37.8967 82.4325C38.2808 82.0475 38.2808 81.7972 38.2808 57.7312C38.2808 30.7196 38.3769 32.5678 37.0324 32.5678C36.5714 32.5678 36.3025 32.6834 36.1681 32.9336Z" stroke="#49A39E"/>
<path d="M45.1185 32.8759C44.8496 33.1454 44.8112 35.6483 44.8112 57.5579C44.8112 79.3328 44.8496 82.009 45.1185 82.394C45.4835 82.9331 46.2133 82.9523 46.7319 82.4325C47.1161 82.0475 47.1161 81.7972 47.1161 57.7312C47.1161 36.0333 47.0777 33.3765 46.8088 32.9914C46.463 32.4908 45.5603 32.4138 45.1185 32.8759Z" stroke="#49A39E"/>
<path d="M53.973 32.9144C53.6657 33.2417 53.6465 35.2247 53.6465 57.6157C53.6465 84.4348 53.5696 82.8176 54.7989 82.8176C56.0281 82.8176 55.9513 84.4348 55.9513 57.5772C55.9513 34.2043 55.9321 33.1839 55.6056 32.8951C55.1446 32.4716 54.3571 32.4908 53.973 32.9144Z" stroke="#49A39E"/>
<path d="M62.789 32.9914C62.5201 33.3765 62.4817 36.0333 62.4817 57.7312C62.4817 81.7972 62.4817 82.0475 62.8658 82.4325C63.3844 82.9523 64.1143 82.9331 64.4792 82.394C64.7481 82.009 64.7865 79.3328 64.7865 57.5579C64.7865 35.6483 64.7481 33.1454 64.4792 32.8759C64.0375 32.4138 63.1347 32.4908 62.789 32.9914Z" stroke="#49A39E"/>
<path d="M71.605 33.0107C71.3361 33.415 71.3169 36.2066 71.3553 57.866C71.413 81.7779 71.413 82.2785 71.7779 82.548C72.2965 82.9138 72.9303 82.8946 73.2952 82.471C73.6026 82.1437 73.6218 80.1414 73.6218 57.712C73.6218 41.2701 73.5641 33.1839 73.4297 32.9336C73.1224 32.3753 71.9892 32.4331 71.605 33.0107Z" stroke="#49A39E"/>
<path d="M80.5747 32.7989C80.4018 32.9721 80.3442 38.7672 80.3442 57.7312C80.3442 81.9512 80.3442 82.4133 80.7092 82.625C81.2662 82.9138 81.7848 82.8561 82.1305 82.471C82.4378 82.1437 82.457 80.1414 82.457 57.712C82.457 41.2701 82.3994 33.1839 82.2649 32.9336C82.0344 32.5101 80.9588 32.4138 80.5747 32.7989Z" stroke="#49A39E"/>
</svg>
