<svg width="92" height="92" viewBox="0 0 92 92" fill="none" xmlns="http://www.w3.org/2000/svg">
<path d="M30.8379 8.02628C13.4847 12.996 6.32433 15.1287 6.14825 15.383C5.93305 15.6569 5.89392 22.6615 5.89392 52.382V89.0287H3.82015C2.68544 89.0287 1.58986 89.1266 1.37465 89.2244C0.944246 89.4592 0.865991 90.3788 1.23771 90.7505C1.57029 91.0832 90.4297 91.0832 90.7623 90.7505C91.134 90.3788 91.0558 89.4592 90.6253 89.2244C90.4101 89.1266 89.3146 89.0287 88.1798 89.0287H86.1061V54.8277C86.1061 22.4854 86.0865 20.5875 85.7735 20.294C85.5779 20.1375 79.0435 17.1244 71.2375 13.6417L57.0536 7.28278L56.9949 4.38703C56.9754 2.66524 56.858 1.39346 56.721 1.23693C56.6036 1.09998 56.2319 0.982582 55.8994 1.00215C55.5668 1.02171 44.2979 4.17181 30.8379 8.02628ZM54.9994 46.1796V89.0287H31.4249H7.85032V52.9494C7.85032 28.1986 7.90901 16.8113 8.04596 16.7331C8.30029 16.5765 54.4125 3.36961 54.7646 3.35004C54.9407 3.33047 54.9994 12.0177 54.9994 46.1796ZM70.6506 15.5591C77.811 18.7679 83.778 21.468 83.9149 21.5854C84.091 21.7223 84.1497 28.7269 84.1497 55.3951V89.0287H70.5527H56.9558V49.2906C56.9558 11.5286 56.9754 9.55241 57.308 9.65023C57.484 9.68936 63.4902 12.3503 70.6506 15.5591Z" fill="#49A39E" stroke="#49A39E"/>
<path d="M14.6046 24.0234H22.9767V27.163H14.6046V24.0234Z" fill="#49A39E"/>
<path d="M14.6046 34.4886H22.9767V37.6281H14.6046V34.4886Z" fill="#49A39E"/>
<path d="M14.6046 55.4188H22.9767V58.5583H14.6046V55.4188Z" fill="#49A39E"/>
<path d="M14.6046 44.9537H22.9767V48.0932H14.6046V44.9537Z" fill="#49A39E"/>
<path d="M14.6046 65.8839H22.9767V69.0234H14.6046V65.8839Z" fill="#49A39E"/>
<path d="M14.6046 76.349H22.9767V79.4886H14.6046V76.349Z" fill="#49A39E"/>
<path d="M27.1628 24.0234H35.5349V27.163H27.1628V24.0234Z" fill="#49A39E"/>
<path d="M27.1628 34.4886H35.5349V37.6281H27.1628V34.4886Z" fill="#49A39E"/>
<path d="M27.1628 55.4188H35.5349V58.5583H27.1628V55.4188Z" fill="#49A39E"/>
<path d="M27.1628 44.9537H35.5349V48.0932H27.1628V44.9537Z" fill="#49A39E"/>
<path d="M27.1628 65.8839H35.5349V69.0234H27.1628V65.8839Z" fill="#49A39E"/>
<path d="M27.1628 76.349H35.5349V79.4886H27.1628V76.349Z" fill="#49A39E"/>
<path d="M39.7209 24.0234H48.093V27.163H39.7209V24.0234Z" fill="#49A39E"/>
<path d="M39.7209 34.4886H48.093V37.6281H39.7209V34.4886Z" fill="#49A39E"/>
<path d="M39.7209 55.4188H48.093V58.5583H39.7209V55.4188Z" fill="#49A39E"/>
<path d="M39.7209 44.9537H48.093V48.0932H39.7209V44.9537Z" fill="#49A39E"/>
<path d="M39.7209 65.8839H48.093V69.0234H39.7209V65.8839Z" fill="#49A39E"/>
<path d="M39.7209 76.349H48.093V79.4886H39.7209V76.349Z" fill="#49A39E"/>
<path d="M65.8837 24.0234H74.2558V27.163H65.8837V24.0234Z" fill="#49A39E"/>
<path d="M65.8837 34.4886H74.2558V37.6281H65.8837V34.4886Z" fill="#49A39E"/>
<path d="M65.8837 55.4188H74.2558V58.5583H65.8837V55.4188Z" fill="#49A39E"/>
<path d="M65.8837 44.9537H74.2558V48.0932H65.8837V44.9537Z" fill="#49A39E"/>
<path d="M65.8837 65.8839H74.2558V69.0234H65.8837V65.8839Z" fill="#49A39E"/>
<path d="M65.8837 76.349H74.2558V79.4886H65.8837V76.349Z" fill="#49A39E"/>
</svg>
