<svg width="50" height="50" viewBox="0 0 50 50" fill="none" xmlns="http://www.w3.org/2000/svg">
<rect width="50" height="50" fill="white"/>
<path d="M27.9796 12.6426C26.3185 12.6426 24.7255 13.3024 23.5509 14.477C22.3764 15.6515 21.7166 17.2445 21.7166 18.9056V22.3926H18.365C18.1967 22.3926 18.0603 22.529 18.0603 22.6973V27.3014C18.0603 27.4697 18.1967 27.6061 18.365 27.6061H21.7166V37.0514C21.7166 37.2197 21.853 37.3561 22.0212 37.3561H26.6254C26.7937 37.3561 26.9301 37.2197 26.9301 37.0514V27.6061H30.3113C30.4512 27.6061 30.573 27.511 30.6069 27.3753L31.758 22.7712C31.8061 22.5789 31.6606 22.3926 31.4624 22.3926H26.9301V18.9056C26.9301 18.6273 27.0407 18.3603 27.2375 18.1635C27.4343 17.9667 27.7012 17.8561 27.9796 17.8561H31.5004C31.6687 17.8561 31.8051 17.7197 31.8051 17.5514V12.9473C31.8051 12.779 31.6687 12.6426 31.5004 12.6426H27.9796Z" fill="#49A39E"/>
</svg>
