<svg width="43" height="50" viewBox="0 0 43 50" fill="none" xmlns="http://www.w3.org/2000/svg">
<path fill-rule="evenodd" clip-rule="evenodd" d="M21.3759 0C25.1831 4.05338 28.7049 9.05995 31.7675 14.4984L25.3972 14.7544C31.3672 14.8408 31.9661 15.7601 33.9271 18.5548L25.4965 18.8942C31.8171 18.9867 34.2188 19.8042 35.8602 22.6206L25.5989 23.0339C32.0002 23.1265 35.9967 23.4134 37.5885 26.6955L25.7013 27.1737C32.2733 27.1768 36.7725 27.5161 39.1152 30.7767L25.8037 31.3134C31.4758 31.3628 39.4099 31.5417 40.4432 34.8671L25.9061 35.4532C31.7427 35.5889 39.8319 35.1848 41.5602 38.9667L26.0085 39.5929C31.5627 39.5312 41.0421 39.0469 42.4477 43.0756L26.1078 43.7327C30.4581 43.7975 42.1746 43.1065 43 46.6077C35.3638 51.1947 23.0111 45.5897 16.3895 44.2293C16.5012 30.061 18.5429 14.0388 21.3759 0ZM41.4827 47.8971C28.4381 54.6188 9.68105 42.7702 0 46.2098C0.682638 29.6507 7.82551 17.6294 19.3528 8.72679C18.7353 12.0676 18.0744 15.4763 17.4352 18.8973L9.98513 19.1965C13.932 19.3168 16.7184 19.4679 16.7836 22.454L9.88584 22.7316C12.0206 22.8859 16.2189 23.0185 16.1661 26.0107L9.78345 26.2668C12.5761 26.458 15.9334 27.0966 15.5983 29.5644L9.68415 29.8019C13.0074 29.9191 15.288 31.3936 15.0987 33.1149L9.58486 33.337C13.538 33.4142 14.6674 35.3853 14.686 36.6624L9.48557 36.8722C13.4107 36.9493 14.4657 38.8094 14.3788 40.2068L9.38627 40.4104C13.87 40.4844 14.1834 42.579 14.202 43.7481L9.28388 43.9455C17.581 44.0658 31.8358 52.0523 41.4827 47.8971Z" fill="white"/>
</svg>
