<svg width="50" height="50" viewBox="0 0 50 50" fill="none" xmlns="http://www.w3.org/2000/svg">
<rect width="50" height="50" fill="white"/>
<path d="M25.0001 20.5978C22.5695 20.5978 20.5991 22.5682 20.5991 24.9989C20.5991 27.4295 22.5695 29.3999 25.0001 29.3999C27.4307 29.3999 29.4011 27.4295 29.4011 24.9989C29.4011 22.5682 27.4307 20.5978 25.0001 20.5978Z" fill="#49A39E"/>
<path fill-rule="evenodd" clip-rule="evenodd" d="M17.9172 12.9217C22.5865 12.3998 27.4137 12.3998 32.083 12.9217C34.6538 13.209 36.7273 15.2345 37.029 17.8143C37.5873 22.5877 37.5873 27.41 37.029 32.1834C36.7273 34.7632 34.6538 36.7887 32.083 37.076C27.4137 37.5979 22.5865 37.5979 17.9172 37.076C15.3464 36.7887 13.2729 34.7632 12.9712 32.1834C12.4129 27.41 12.4129 22.5877 12.9712 17.8143C13.2729 15.2345 15.3464 13.209 17.9172 12.9217ZM31.7709 16.8739C31.023 16.8739 30.4168 17.4801 30.4168 18.228C30.4168 18.9759 31.023 19.5822 31.7709 19.5822C32.5188 19.5822 33.1251 18.9759 33.1251 18.228C33.1251 17.4801 32.5188 16.8739 31.7709 16.8739ZM18.5678 24.9989C18.5678 21.4464 21.4476 18.5666 25.0001 18.5666C28.5526 18.5666 31.4324 21.4464 31.4324 24.9989C31.4324 28.5513 28.5526 31.4311 25.0001 31.4311C21.4476 31.4311 18.5678 28.5513 18.5678 24.9989Z" fill="#49A39E"/>
</svg>
