<svg width="50" height="50" viewBox="0 0 50 50" fill="none" xmlns="http://www.w3.org/2000/svg">
<rect width="50" height="50" fill="white"/>
<path fill-rule="evenodd" clip-rule="evenodd" d="M25.0004 14.166C26.1582 14.166 27.3458 14.1958 28.4969 14.2446L29.8565 14.3096L31.1578 14.3867L32.3766 14.4693L33.4897 14.556C34.6978 14.648 35.8348 15.1633 36.7003 16.0112C37.5659 16.8591 38.1044 17.9853 38.2211 19.1913L38.2753 19.7668L38.3769 20.9991C38.4717 22.2761 38.5421 23.6682 38.5421 24.9993C38.5421 26.3305 38.4717 27.7226 38.3769 28.9996L38.2753 30.2318L38.2211 30.8074C38.1044 32.0136 37.5656 33.1399 36.6998 33.9879C35.834 34.8359 34.6967 35.351 33.4883 35.4427L32.3779 35.528L31.1592 35.6119L29.8565 35.6891L28.4969 35.7541C27.3321 35.8046 26.1663 35.8308 25.0004 35.8327C23.8345 35.8308 22.6688 35.8046 21.5039 35.7541L20.1444 35.6891L18.843 35.6119L17.6243 35.528L16.5111 35.4427C15.303 35.3507 14.166 34.8354 13.3005 33.9875C12.4349 33.1396 11.8964 32.0134 11.7797 30.8074L11.7255 30.2318L11.6239 28.9996C11.5208 27.6686 11.4657 26.3343 11.4587 24.9993C11.4587 23.6682 11.5292 22.2761 11.6239 20.9991L11.7255 19.7668L11.7797 19.1913C11.8963 17.9855 12.4347 16.8595 13.3 16.0116C14.1652 15.1637 15.3019 14.6483 16.5098 14.556L17.6216 14.4693L18.8403 14.3867L20.143 14.3096L21.5026 14.2446C22.6679 14.1941 23.8341 14.1679 25.0004 14.166ZM22.2921 21.7155V28.2832C22.2921 28.9088 22.9692 29.2988 23.5108 28.9874L29.1983 25.7035C29.3221 25.6323 29.4249 25.5297 29.4964 25.406C29.5678 25.2824 29.6055 25.1421 29.6055 24.9993C29.6055 24.8565 29.5678 24.7163 29.4964 24.5926C29.4249 24.469 29.3221 24.3664 29.1983 24.2952L23.5108 21.0127C23.3873 20.9413 23.2471 20.9038 23.1044 20.9038C22.9618 20.9039 22.8216 20.9414 22.6981 21.0128C22.5746 21.0842 22.472 21.1868 22.4007 21.3104C22.3295 21.434 22.292 21.5742 22.2921 21.7168V21.7155Z" fill="#49A39E"/>
</svg>
