<svg width="38" height="38" viewBox="0 0 38 38" fill="none" xmlns="http://www.w3.org/2000/svg">
<path d="M29.1485 24.9651C29.1066 24.8494 29.009 24.6709 28.9392 24.5685C28.5 23.9406 26.1396 22.1924 24.9611 21.6206C24.2882 21.2935 23.7896 21.1844 23.4201 21.2868C23.0226 21.3926 22.8134 21.5677 22.1475 22.351C21.879 22.665 21.6036 22.9591 21.5304 23.0052C21.349 23.1242 20.9934 23.2201 20.7424 23.2201C20.1601 23.2169 19.1037 22.8599 18.2913 22.3906C17.6603 22.0271 16.8514 21.3761 16.2308 20.7316C15.4986 19.9748 15.0001 19.3073 14.606 18.5538C14.097 17.5855 13.968 16.9939 14.1807 16.561C14.233 16.4519 14.3027 16.3363 14.3341 16.2999C14.3655 16.2669 14.6932 16.0124 15.0558 15.7348C15.7671 15.1994 15.8821 15.0771 16.0146 14.7103C16.182 14.2443 16.1367 13.7684 15.8787 13.2893C15.6799 12.9257 15.1604 12.1326 14.7839 11.6203C14.2853 10.9462 13.0441 9.5053 12.7965 9.31026C12.3502 8.9666 11.7785 8.90707 11.1474 9.13846C10.4815 9.38302 9.23326 10.3348 8.69981 10.9991C8.21866 11.6005 8.03393 12.0268 8.00601 12.5886C7.98162 13.0513 8.02345 13.243 8.28146 13.8345C10.3002 18.4744 13.3125 22.1791 17.4511 25.1204C19.6127 26.6571 21.8546 27.827 24.1801 28.6269C25.5364 29.0927 26.1256 29.1159 26.8195 28.7326C27.1122 28.5672 27.8375 27.8634 28.242 27.3511C28.9114 26.4985 29.159 26.1052 29.2286 25.7912C29.2775 25.5765 29.2391 25.203 29.1485 24.9651Z" fill="white"/>
</svg>
